<?xml version="1.0" encoding="utf-8"?>
<!-- Generator: Adobe Illustrator 15.0.0, SVG Export Plug-In . SVG Version: 6.00 Build 0)  -->
<!DOCTYPE svg PUBLIC "-//W3C//DTD SVG 1.1//EN" "http://www.w3.org/Graphics/SVG/1.1/DTD/svg11.dtd">
<svg version="1.1" id="Layer_1" xmlns="http://www.w3.org/2000/svg" xmlns:xlink="http://www.w3.org/1999/xlink" x="0px" y="0px"
	 width="64.027px" height="10.736px" viewBox="0 0 64.027 10.736" enable-background="new 0 0 64.027 10.736" xml:space="preserve">
<path fill="#333333" d="M61.216,6.364c-2.938-1.781-8.125-4.25-13.812-4.25S36.685,5.302,35.716,5.771s0.197,0.479,0.197,0.479
	c0.834,0.334-0.709,0.875-1.416,0.833c-0.709-0.042-1.043-0.5-1.043-1.292c0-0.791,1.334-1.916,1.793-2.375
	c0.457-0.458,0.166-0.916,0-1.041c-0.158-0.117-2.887-2.109-3.217-2.351V0c0,0-0.012,0.008-0.018,0.012
	C32.009,0.008,31.997,0,31.997,0v0.024c-0.332,0.241-3.061,2.233-3.217,2.351c-0.168,0.125-0.459,0.583,0,1.041
	C29.237,3.875,30.571,5,30.571,5.791c0,0.792-0.334,1.25-1.041,1.292c-0.709,0.042-2.252-0.499-1.418-0.833
	c0,0,1.168-0.011,0.199-0.479s-6-3.656-11.688-3.656S5.749,4.583,2.812,6.364S-0.063,8.771,0.03,8.927s0.625,0.281,1.531-0.344
	s4.25-2.188,6.531-2.156s5.062,1.719,9.156,1.812s5.594-0.656,6.156-0.906s2.188-0.781,3.344,0.062
	c0.998,0.729,3.789,2.723,5.035,3.251c0,0,0.139,0.113,0.229,0.086c0.092,0.027,0.23-0.086,0.23-0.086
	c1.244-0.528,4.035-2.521,5.035-3.251c1.156-0.844,2.781-0.312,3.344-0.062s2.062,1,6.156,0.906s6.875-1.781,9.156-1.812
	s5.625,1.531,6.531,2.156s1.438,0.5,1.531,0.344S64.153,8.146,61.216,6.364z"/>
</svg>
