<?xml version="1.0" encoding="utf-8"?>
<!-- Generator: Adobe Illustrator 15.0.0, SVG Export Plug-In . SVG Version: 6.00 Build 0)  -->
<!DOCTYPE svg PUBLIC "-//W3C//DTD SVG 1.1//EN" "http://www.w3.org/Graphics/SVG/1.1/DTD/svg11.dtd">
<svg version="1.1" id="Layer_1" xmlns="http://www.w3.org/2000/svg" xmlns:xlink="http://www.w3.org/1999/xlink" x="0px" y="0px"
	 width="221.7px" height="172.881px" viewBox="0 0 221.7 172.881" enable-background="new 0 0 221.7 172.881" xml:space="preserve">
<g>
	<g>
		<path fill="#333333" d="M13.579,57.006v4.526H6.79v10.187h9.052v4.525H6.79v42.126H2.263V76.244H0v-4.525h2.263V57.006H13.579z"/>
		<path fill="#333333" d="M38.23,84.673c3.373,3.858,5.059,8.509,5.059,13.956c0,5.445-1.686,10.098-5.059,13.954
			c-3.374,3.858-7.445,5.787-12.216,5.787c-4.771,0-8.843-1.929-12.216-5.787c-3.373-3.856-5.059-8.509-5.059-13.954
			c0-5.447,1.686-10.098,5.059-13.956c3.373-3.858,7.444-5.788,12.216-5.788C30.785,78.885,34.857,80.814,38.23,84.673z
			 M34.738,109.104c2.41-2.887,3.615-6.379,3.615-10.475c0-4.098-1.206-7.59-3.615-10.477c-2.411-2.888-5.318-4.332-8.724-4.332
			s-6.314,1.444-8.724,4.332c-2.411,2.887-3.616,6.379-3.616,10.477c0,4.096,1.205,7.588,3.616,10.475
			c2.41,2.887,5.318,4.331,8.724,4.331S32.328,111.99,34.738,109.104z"/>
		<path fill="#333333" d="M49.99,86.289v32.081h-4.936V78.885h4.936l7.403,9.871v-9.871h4.936v39.485h-4.936V96.16L49.99,86.289z"/>
		<path fill="#333333" d="M78.795,78.885v4.936H73.86v34.55h-4.936V83.82h-4.936v-4.936H78.795z"/>
		<path fill="#333333" d="M97.654,78.574c4.771,0,8.843,1.445,12.215,4.332c3.374,2.887,5.059,6.379,5.059,10.476
			c0,4.098-1.686,7.585-5.059,10.464c-2.139,1.843-4.564,3.102-7.28,3.775v10.439h-4.935V78.574z M102.589,84.301v18.164
			c1.383-0.479,2.649-1.177,3.801-2.1c2.402-1.924,3.603-4.252,3.603-6.983c0-2.73-1.201-5.059-3.603-6.983
			C105.238,85.478,103.972,84.777,102.589,84.301z"/>
		<path fill="#333333" d="M145.457,84.673c3.372,3.858,5.058,8.509,5.058,13.956c0,5.445-1.686,10.098-5.058,13.954
			c-3.374,3.858-7.444,5.787-12.216,5.787s-8.844-1.929-12.217-5.787c-3.372-3.856-5.059-8.509-5.059-13.954
			c0-5.447,1.687-10.098,5.059-13.956c3.373-3.858,7.445-5.788,12.217-5.788S142.083,80.814,145.457,84.673z M141.964,109.104
			c2.409-2.887,3.614-6.379,3.614-10.475c0-4.098-1.205-7.59-3.614-10.477c-2.411-2.888-5.319-4.332-8.724-4.332
			c-3.406,0-6.314,1.444-8.725,4.332c-2.41,2.887-3.615,6.379-3.615,10.477c0,4.096,1.205,7.588,3.615,10.475
			s5.318,4.331,8.725,4.331C136.645,113.435,139.553,111.99,141.964,109.104z"/>
		<path fill="#333333" d="M161.936,78.885v4.936h-4.938v34.55h-4.936V83.82h-4.936v-4.936H161.936z"/>
		<path fill="#333333" d="M178.1,78.885v4.936h-4.936v34.55h-4.936V83.82h-4.936v-4.936H178.1z"/>
		<path fill="#333333" d="M179.446,78.885h4.936v39.485h-4.936V78.885z"/>
		<path fill="#333333" d="M190.664,86.289v32.081h-4.937V78.885h4.937l7.403,9.871v-9.871h4.936v39.485h-4.936V96.16L190.664,86.289
			z"/>
		<path fill="#333333" d="M221.7,118.37c-4.771,0-8.842-1.929-12.215-5.787c-3.373-3.856-5.059-8.509-5.059-13.954
			c0-5.447,1.686-10.098,5.059-13.956s7.444-5.788,12.215-5.788v4.936c-3.404,0-6.312,1.444-8.723,4.332
			c-2.41,2.887-3.615,6.379-3.615,10.477c0,4.096,1.209,7.584,3.627,10.463c1.135,1.381,2.395,2.436,3.775,3.158v-8.686h4.936
			V118.37z"/>
		<path fill="#333333" d="M78.115,120.256l0.007-4.391l0.151,2.195l-0.158-2.195c0.552-0.043,13.515-1.175,13.515-14.826
			c0-5.867-2.574-9.02-4.642-11.552l-0.309-0.38c-0.265-0.325-0.625-0.701-1.043-1.139c-2.065-2.156-5.521-5.767-5.521-12.504
			c0-12.182,9.876-17.203,15.292-18.213c0.073-0.014,0.885-0.184,0.957-0.195v4.496c-0.477,0.084-11.847,2.234-11.847,13.912
			c0,4.971,2.383,7.46,4.298,9.46c0.464,0.485,0.903,0.943,1.281,1.409l0.301,0.369c2.244,2.748,5.635,6.9,5.635,14.336
			c0,14.135-11.344,18.729-17.469,19.207C78.517,120.25,78.347,120.252,78.115,120.256z"/>
	</g>
	<g>
		<path fill="#3A3A3A" d="M113.146,44.505h-2.624l1.424-11.656h2.624L113.146,44.505z"/>
		<path fill="#3A3A3A" d="M122.217,35.185c-0.091,0.128-0.183,0.222-0.276,0.28c-0.093,0.059-0.204,0.088-0.332,0.088
			c-0.122,0-0.245-0.04-0.368-0.12c-0.122-0.08-0.26-0.168-0.411-0.264c-0.152-0.096-0.327-0.184-0.524-0.264s-0.43-0.12-0.696-0.12
			c-0.245,0-0.46,0.034-0.644,0.104c-0.185,0.069-0.338,0.166-0.46,0.288c-0.123,0.123-0.215,0.267-0.276,0.432
			c-0.062,0.166-0.092,0.348-0.092,0.545c0,0.213,0.06,0.392,0.18,0.535c0.12,0.145,0.28,0.271,0.48,0.381s0.425,0.209,0.676,0.3
			s0.508,0.189,0.772,0.296c0.264,0.106,0.522,0.229,0.775,0.368s0.48,0.312,0.68,0.52c0.2,0.208,0.36,0.459,0.48,0.752
			c0.12,0.294,0.18,0.646,0.18,1.057c0,0.586-0.101,1.139-0.304,1.655c-0.203,0.518-0.493,0.97-0.872,1.356s-0.839,0.693-1.38,0.92
			s-1.15,0.34-1.828,0.34c-0.336,0-0.673-0.037-1.012-0.112c-0.339-0.074-0.664-0.18-0.977-0.315
			c-0.312-0.136-0.601-0.298-0.867-0.484c-0.268-0.187-0.494-0.395-0.681-0.624l0.929-1.216c0.068-0.091,0.159-0.165,0.271-0.224
			s0.224-0.088,0.336-0.088c0.149,0,0.295,0.052,0.437,0.155c0.141,0.104,0.297,0.219,0.468,0.345
			c0.171,0.125,0.369,0.239,0.596,0.344c0.227,0.104,0.505,0.156,0.836,0.156c0.485,0,0.86-0.133,1.124-0.396
			s0.396-0.654,0.396-1.172c0-0.24-0.061-0.438-0.181-0.592c-0.12-0.155-0.277-0.285-0.472-0.393
			c-0.194-0.106-0.417-0.201-0.668-0.284c-0.251-0.082-0.507-0.172-0.768-0.268c-0.262-0.096-0.518-0.209-0.769-0.34
			s-0.474-0.302-0.668-0.512c-0.194-0.211-0.352-0.47-0.472-0.776s-0.181-0.684-0.181-1.132c0-0.518,0.098-1.015,0.292-1.492
			c0.195-0.478,0.474-0.9,0.836-1.268c0.363-0.368,0.803-0.662,1.32-0.881c0.518-0.218,1.099-0.327,1.744-0.327
			c0.331,0,0.652,0.034,0.964,0.104c0.312,0.069,0.604,0.165,0.876,0.288c0.272,0.123,0.521,0.268,0.744,0.436
			s0.413,0.352,0.568,0.549L122.217,35.185z"/>
	</g>
	<g>
		<path d="M59.596,35.535l-4.072-1.984l1.523,4.266L42.901,31.03l2.213-1.981l7.154,3.43l-0.219-0.649l-6.519-3.152l2.213-1.981
			l7.062,3.488l-2.689-7.403l2.213-1.981L59.596,35.535z M54.116,21.642l-1.436,1.285l2.917,8.142l-7.771-3.795l-1.435,1.285
			l6.019,2.972l0.639,1.82l-7.852-3.723l-1.435,1.284l12.493,6.02l-1.536-4.279l4.084,1.998L54.116,21.642z"/>
		<path d="M57.552,18.628l2.364-1.516l2.925,4.561l3.318-2.129l-2.926-4.561l2.364-1.517l7.329,11.425l-2.364,1.517l-3.003-4.683
			l-3.318,2.129l3.003,4.682l-2.364,1.517L57.552,18.628z M65.027,29.382l1.546-0.992l-3.004-4.682l4.137-2.653l3.003,4.682
			l1.545-0.991l-6.804-10.606l-1.545,0.991l2.925,4.561l-4.136,2.654l-2.926-4.562l-1.545,0.992L65.027,29.382z"/>
		<path d="M76.974,19.361l0.156,3.39l-2.77,1.258L73.889,8.308L85.406,18.99l-2.77,1.259l-2.45-2.347L76.974,19.361z M80.28,17.325
			l2.483,2.332l1.77-0.804l-10.16-9.48l0.458,13.889l1.77-0.805l-0.124-3.404L80.28,17.325z M79.053,16.104l-2.688,1.222
			l-0.212-4.036L79.053,16.104z M76.644,14.371l0.143,2.229l1.442-0.655L76.644,14.371z"/>
		<path d="M84.929,7.879l-2.967,0.942l-0.828-2.607l8.61-2.734l0.828,2.607l-2.967,0.942l3.279,10.324l-2.676,0.851L84.929,7.879z
			 M88.524,17.594l1.75-0.556L86.995,6.713l2.967-0.942L89.428,4.09l-7.684,2.44l0.534,1.681l2.967-0.942L88.524,17.594z"/>
		<path d="M106.518,3.291l-3.104,0.256l-0.225-2.728l9.008-0.742l0.226,2.728l-3.105,0.256l0.891,10.803l-2.799,0.23L106.518,3.291z
			 M107.854,13.569l1.831-0.151l-0.891-10.802l3.104-0.257l-0.145-1.758l-8.039,0.663l0.145,1.758l3.104-0.256L107.854,13.569z"/>
		<path d="M116.233,0l2.804,0.133l-0.257,5.41l3.936,0.188l0.258-5.41l2.805,0.133l-0.645,13.554l-2.805-0.134l0.264-5.554
			l-3.936-0.188l-0.265,5.554l-2.804-0.133L116.233,0z M116.096,13.091l1.834,0.087l0.264-5.555l4.907,0.233l-0.264,5.555
			l1.833,0.087l0.599-12.582l-1.833-0.088l-0.258,5.411l-4.907-0.233l0.257-5.41l-1.833-0.088L116.096,13.091z"/>
		<path d="M130.122,0.996l8.184,1.466l-0.482,2.693l-5.42-0.972l-0.365,2.037l5.173,0.927l-0.477,2.657l-5.173-0.927l-0.58,3.242
			l5.527,0.99l-0.489,2.729l-8.291-1.485L130.122,0.996z M128.292,13.961l7.335,1.313l0.317-1.771l-5.527-0.99l0.752-4.198
			l5.173,0.927l0.305-1.701l-5.173-0.927l0.537-2.993l5.42,0.971l0.312-1.736l-7.228-1.295L128.292,13.961z"/>
		<path d="M150.747,6.081l2.59,1.085l-2.095,4.998l3.636,1.523l2.095-4.997l2.59,1.085l-5.247,12.518l-2.59-1.085l2.15-5.13
			l-3.636-1.523l-2.149,5.129l-2.59-1.085L150.747,6.081z M146.136,18.338l1.693,0.71l2.149-5.13l4.533,1.899l-2.15,5.13l1.693,0.71
			l4.871-11.621l-1.693-0.71l-2.095,4.997l-4.532-1.899l2.094-4.997l-1.693-0.71L146.136,18.338z"/>
		<path d="M163.48,11.779l7.19,4.181l-1.375,2.365l-4.763-2.769l-1.04,1.79l4.544,2.642l-1.356,2.335l-4.545-2.642l-1.656,2.848
			l4.855,2.823l-1.393,2.396l-7.284-4.234L163.48,11.779z M157.323,23.339l6.443,3.746l0.904-1.557l-4.855-2.823l2.145-3.688
			l4.544,2.643l0.868-1.494l-4.544-2.643l1.529-2.63l4.763,2.769l0.887-1.525l-6.351-3.691L157.323,23.339z"/>
		<path d="M173.904,18.157l2.243,1.69l-6.501,8.624l4.11,3.099l-1.668,2.213l-6.354-4.788L173.904,18.157z M166.417,28.899
			l5.576,4.203l1.084-1.437l-4.111-3.099l6.5-8.625L174,18.838L166.417,28.899z"/>
		<path d="M183.264,25.531l2.028,1.942l-7.471,7.8l3.718,3.562l-1.917,2.002l-5.746-5.504L183.264,25.531z M174.563,35.318
			l5.045,4.831l1.244-1.3l-3.717-3.561l7.471-7.801l-1.326-1.27L174.563,35.318z"/>
	</g>
	<polygon fill="none" stroke="#3A3A3A" stroke-miterlimit="10" points="157.942,41.631 131.987,41.631 132.67,39.631 
		158.625,39.631 	"/>
	<polygon fill="none" stroke="#3A3A3A" stroke-miterlimit="10" points="99.941,41.631 73.987,41.631 74.67,39.631 100.625,39.631 	
		"/>
	<rect x="38.1" y="142.131" fill="#3A3A3A" width="155" height="4"/>
	<circle fill="#3A3A3A" cx="115.35" cy="168.381" r="4.5"/>
</g>
</svg>
