<?xml version="1.0" encoding="utf-8"?>
<!-- Generator: Adobe Illustrator 15.0.0, SVG Export Plug-In . SVG Version: 6.00 Build 0)  -->
<!DOCTYPE svg PUBLIC "-//W3C//DTD SVG 1.1//EN" "http://www.w3.org/Graphics/SVG/1.1/DTD/svg11.dtd">
<svg version="1.1" id="Layer_1" xmlns="http://www.w3.org/2000/svg" xmlns:xlink="http://www.w3.org/1999/xlink" x="0px" y="0px"
	 width="60.853px" height="10.59px" viewBox="0 0 60.853 10.59" enable-background="new 0 0 60.853 10.59" xml:space="preserve">
<g>
	<path fill="#FFFFFF" d="M9.254,4.725c0,0.555-0.062,1.08-0.188,1.578C8.939,6.799,8.76,7.262,8.526,7.689
		C8.293,8.115,8.01,8.5,7.676,8.844s-0.707,0.635-1.12,0.879c-0.413,0.242-0.863,0.43-1.351,0.559c-0.488,0.131-1,0.197-1.537,0.197
		H0L1.261,0.279h3.668c0.667,0,1.268,0.113,1.802,0.34c0.535,0.227,0.988,0.537,1.362,0.934c0.373,0.396,0.66,0.865,0.86,1.408
		C9.154,3.502,9.254,4.09,9.254,4.725z M6.916,4.779c0-0.414-0.048-0.791-0.144-1.129c-0.096-0.34-0.237-0.627-0.427-0.865
		C6.157,2.547,5.925,2.363,5.649,2.232S5.059,2.035,4.704,2.035H3.332L2.521,8.721h1.372c0.467,0,0.887-0.092,1.26-0.275
		c0.373-0.186,0.69-0.447,0.952-0.789c0.261-0.34,0.462-0.752,0.602-1.238C6.847,5.934,6.916,5.387,6.916,4.779z"/>
	<path fill="#FFFFFF" d="M12.341,10.59c-0.405,0-0.785-0.068-1.137-0.203c-0.353-0.135-0.658-0.332-0.917-0.592
		c-0.26-0.258-0.462-0.578-0.609-0.959C9.53,8.457,9.457,8.02,9.457,7.523c0-0.643,0.106-1.234,0.318-1.773
		c0.213-0.539,0.498-1.006,0.857-1.396c0.359-0.393,0.776-0.697,1.25-0.918c0.474-0.219,0.972-0.328,1.494-0.328
		c0.406,0,0.784,0.066,1.135,0.203c0.35,0.135,0.654,0.332,0.913,0.592c0.259,0.258,0.463,0.578,0.612,0.959
		c0.149,0.379,0.225,0.816,0.225,1.312c0,0.635-0.106,1.221-0.319,1.76c-0.212,0.539-0.498,1.006-0.857,1.4
		s-0.775,0.701-1.249,0.924C13.362,10.479,12.864,10.59,12.341,10.59z M12.537,8.98c0.243,0,0.46-0.074,0.651-0.221
		s0.354-0.348,0.486-0.602c0.133-0.256,0.235-0.551,0.308-0.891c0.072-0.338,0.108-0.697,0.108-1.08c0-0.527-0.07-0.904-0.213-1.131
		s-0.375-0.34-0.696-0.34c-0.243,0-0.46,0.074-0.651,0.221s-0.354,0.346-0.486,0.598s-0.236,0.549-0.309,0.891
		c-0.072,0.34-0.108,0.701-0.108,1.084c0,0.518,0.071,0.893,0.214,1.123C11.983,8.865,12.215,8.98,12.537,8.98z"/>
	<path fill="#FFFFFF" d="M16.989,3.219h1.666c0.141,0,0.259,0.035,0.357,0.105c0.098,0.07,0.151,0.16,0.161,0.273l0.21,3.254
		c0,0.02,0.001,0.037,0.003,0.053c0.003,0.018,0.004,0.033,0.004,0.053c0.014,0.225,0.025,0.441,0.035,0.65
		c0.009,0.211,0.016,0.42,0.021,0.631c0.084-0.225,0.174-0.451,0.27-0.68S19.906,7.096,20,6.852l1.218-3.262
		c0.037-0.107,0.11-0.197,0.221-0.27c0.109-0.072,0.227-0.107,0.354-0.107h0.938c0.149,0,0.27,0.035,0.36,0.107
		s0.144,0.162,0.157,0.27l0.421,3.262c0.032,0.238,0.063,0.473,0.094,0.701s0.058,0.455,0.081,0.678
		c0.065-0.223,0.135-0.447,0.21-0.672c0.074-0.223,0.151-0.459,0.23-0.707l1.022-3.254c0.037-0.107,0.108-0.197,0.213-0.27
		c0.105-0.072,0.221-0.109,0.347-0.109h1.597l-2.954,7.26h-1.694c-0.084,0-0.153-0.029-0.206-0.084
		c-0.054-0.057-0.093-0.15-0.116-0.281L21.96,6.494c-0.015-0.102-0.027-0.203-0.039-0.303c-0.012-0.102-0.022-0.203-0.031-0.305
		c-0.037,0.107-0.077,0.211-0.119,0.314s-0.082,0.205-0.119,0.309l-1.386,3.604c-0.098,0.244-0.252,0.365-0.462,0.365H18.18
		L16.989,3.219z"/>
	<path fill="#FFFFFF" d="M31.536,10.479l0.546-4.613c0.009-0.074,0.016-0.145,0.021-0.207s0.007-0.123,0.007-0.178
		c0-0.248-0.043-0.42-0.129-0.516c-0.087-0.096-0.216-0.143-0.389-0.143c-0.158,0-0.324,0.049-0.497,0.146s-0.337,0.236-0.493,0.414
		c-0.156,0.176-0.3,0.393-0.431,0.646s-0.233,0.535-0.308,0.844l-0.399,3.605h-2.17l0.868-7.26h1.12
		c0.224,0,0.398,0.053,0.524,0.158s0.189,0.275,0.189,0.514v0.582c0.35-0.467,0.732-0.811,1.147-1.033
		c0.416-0.221,0.845-0.332,1.288-0.332c0.271,0,0.52,0.049,0.746,0.146c0.226,0.098,0.421,0.242,0.584,0.43
		c0.163,0.189,0.292,0.422,0.385,0.697c0.094,0.275,0.141,0.594,0.141,0.953c0,0.084-0.004,0.17-0.011,0.258
		c-0.007,0.09-0.016,0.18-0.024,0.273l-0.546,4.613H31.536z"/>
	<path fill="#FFFFFF" d="M35.05,10.479L36.324,0h2.142l-1.273,10.479H35.05z"/>
	<path fill="#FFFFFF" d="M41.489,10.59c-0.405,0-0.785-0.068-1.137-0.203c-0.353-0.135-0.658-0.332-0.917-0.592
		c-0.26-0.258-0.462-0.578-0.609-0.959c-0.147-0.379-0.221-0.816-0.221-1.312c0-0.643,0.106-1.234,0.318-1.773
		c0.213-0.539,0.498-1.006,0.857-1.396c0.359-0.393,0.776-0.697,1.25-0.918c0.474-0.219,0.972-0.328,1.494-0.328
		c0.406,0,0.784,0.066,1.135,0.203c0.35,0.135,0.654,0.332,0.913,0.592c0.259,0.258,0.463,0.578,0.612,0.959
		c0.149,0.379,0.225,0.816,0.225,1.312c0,0.635-0.106,1.221-0.319,1.76c-0.212,0.539-0.498,1.006-0.857,1.4
		s-0.775,0.701-1.249,0.924C42.511,10.479,42.013,10.59,41.489,10.59z M41.686,8.98c0.243,0,0.46-0.074,0.651-0.221
		s0.354-0.348,0.486-0.602c0.133-0.256,0.235-0.551,0.308-0.891c0.072-0.338,0.108-0.697,0.108-1.08c0-0.527-0.07-0.904-0.213-1.131
		s-0.375-0.34-0.696-0.34c-0.243,0-0.46,0.074-0.651,0.221s-0.354,0.346-0.486,0.598s-0.236,0.549-0.309,0.891
		c-0.072,0.34-0.108,0.701-0.108,1.084c0,0.518,0.071,0.893,0.214,1.123C41.132,8.865,41.363,8.98,41.686,8.98z"/>
	<path fill="#FFFFFF" d="M51.906,10.479h-1.162c-0.136,0-0.249-0.018-0.34-0.053s-0.163-0.084-0.217-0.145s-0.091-0.133-0.112-0.217
		c-0.021-0.084-0.031-0.174-0.031-0.271v-0.52c-0.299,0.412-0.63,0.732-0.994,0.967c-0.364,0.232-0.766,0.35-1.204,0.35
		c-0.261,0-0.513-0.053-0.756-0.158c-0.242-0.104-0.457-0.264-0.644-0.475c-0.188-0.213-0.336-0.484-0.448-0.812
		S45.83,8.428,45.83,7.979c0-0.658,0.12-1.281,0.36-1.871c0.24-0.592,0.576-1.107,1.008-1.551S48.143,3.76,48.735,3.5
		c0.592-0.262,1.243-0.393,1.952-0.393c0.346,0,0.695,0.023,1.051,0.07c0.354,0.047,0.704,0.131,1.05,0.252L51.906,10.479z
		 M48.714,8.875c0.158,0,0.312-0.059,0.462-0.178s0.291-0.281,0.424-0.486c0.133-0.207,0.255-0.447,0.367-0.723
		s0.208-0.568,0.287-0.881l0.252-2.01H50.38c-0.354,0-0.678,0.08-0.97,0.238c-0.291,0.158-0.542,0.375-0.752,0.648
		c-0.21,0.271-0.372,0.59-0.486,0.951C48.057,6.797,48,7.184,48,7.594c0,0.234,0.019,0.432,0.056,0.596
		c0.037,0.162,0.088,0.295,0.15,0.395c0.063,0.102,0.138,0.174,0.225,0.221C48.517,8.852,48.611,8.875,48.714,8.875z"/>
	<path fill="#FFFFFF" d="M58.389,10.479c-0.136,0-0.249-0.018-0.34-0.053s-0.163-0.084-0.217-0.145s-0.092-0.133-0.112-0.217
		c-0.021-0.084-0.031-0.174-0.031-0.271V9.184c-0.332,0.438-0.698,0.783-1.1,1.031c-0.401,0.25-0.828,0.375-1.28,0.375
		c-0.299,0-0.572-0.053-0.819-0.158c-0.247-0.104-0.461-0.27-0.641-0.492c-0.18-0.225-0.319-0.51-0.42-0.857s-0.15-0.764-0.15-1.25
		c0-0.42,0.044-0.83,0.133-1.229s0.212-0.773,0.371-1.123c0.158-0.35,0.348-0.672,0.567-0.963c0.219-0.291,0.46-0.541,0.724-0.75
		c0.264-0.207,0.543-0.369,0.837-0.486c0.294-0.115,0.598-0.174,0.91-0.174c0.299,0,0.568,0.051,0.809,0.15s0.451,0.232,0.633,0.395
		L58.725,0h2.128L59.55,10.479H58.389z M56.176,8.938c0.149,0,0.305-0.055,0.466-0.168c0.161-0.111,0.317-0.266,0.469-0.461
		c0.152-0.197,0.293-0.426,0.424-0.689s0.242-0.547,0.336-0.852l0.224-1.764c-0.135-0.107-0.285-0.184-0.451-0.23
		s-0.323-0.07-0.473-0.07c-0.252,0-0.484,0.084-0.696,0.252s-0.396,0.389-0.55,0.662c-0.153,0.271-0.273,0.584-0.36,0.934
		c-0.086,0.35-0.129,0.707-0.129,1.07c0,0.463,0.067,0.797,0.202,1.006C55.772,8.834,55.952,8.938,56.176,8.938z"/>
</g>
</svg>
