<?xml version="1.0" encoding="utf-8"?>
<!-- Generator: Adobe Illustrator 15.0.0, SVG Export Plug-In . SVG Version: 6.00 Build 0)  -->
<!DOCTYPE svg PUBLIC "-//W3C//DTD SVG 1.1//EN" "http://www.w3.org/Graphics/SVG/1.1/DTD/svg11.dtd">
<svg version="1.1" id="Layer_1" xmlns="http://www.w3.org/2000/svg" xmlns:xlink="http://www.w3.org/1999/xlink" x="0px" y="0px"
	 width="122px" height="141.73px" viewBox="0 0 122 141.73" enable-background="new 0 0 122 141.73" xml:space="preserve">
<g>
	<path fill="#3A3A3A" d="M25.21,61.88v-8.984h4.492v8.984h4.492v-8.984h4.492v8.984h2.246v4.492h-2.246v22.461h-4.492V66.373h-4.492
		v22.461H25.21V66.373h-2.246V61.88H25.21z"/>
	<path fill="#3A3A3A" d="M68.586,58.164c3.07,3.51,4.605,7.744,4.605,12.701c0,4.955-1.535,9.189-4.605,12.701
		c-3.068,3.512-6.775,5.268-11.118,5.268c-4.343,0-8.049-1.756-11.118-5.268s-4.604-7.746-4.604-12.701
		c0-4.957,1.535-9.191,4.604-12.701c3.069-3.512,6.775-5.268,11.118-5.268C61.811,52.896,65.518,54.652,68.586,58.164z M65.408,80.4
		c2.193-2.629,3.291-5.807,3.291-9.535s-1.098-6.906-3.291-9.535c-2.193-2.627-4.84-3.941-7.94-3.941
		c-3.1,0-5.746,1.314-7.939,3.941c-2.194,2.629-3.291,5.807-3.291,9.535s1.097,6.906,3.291,9.535
		c2.193,2.627,4.84,3.941,7.939,3.941C60.568,84.341,63.215,83.027,65.408,80.4z"/>
	<path fill="#3A3A3A" d="M86.559,67.271l-3.369,21.562h-4.492l-5.615-35.938h4.492l3.369,21.562l3.369-21.562h4.492l3.369,21.562
		l3.369-21.562h4.492L94.42,88.833h-4.492L86.559,67.271z"/>
</g>
<path fill="#3A3A3A" d="M61,141.73L0,106.292V35.438L61,0l61,35.438v70.854L61,141.73z M4,103.99l57,33.114l57-33.114V37.74
	L61,4.626L4,37.74V103.99z"/>
<g>
	<path d="M41.854,33.16c0.338,0.541,0.583,1.05,0.732,1.527c0.15,0.477,0.211,0.918,0.183,1.319
		c-0.028,0.402-0.14,0.762-0.333,1.078c-0.194,0.315-0.462,0.581-0.806,0.796l-1.35,0.844l-4.129-6.604l1.359-0.85
		c0.344-0.215,0.7-0.341,1.069-0.377c0.368-0.035,0.74,0.024,1.113,0.18c0.373,0.156,0.743,0.407,1.108,0.754
		C41.164,32.175,41.516,32.619,41.854,33.16z M41.241,33.542c-0.292-0.468-0.59-0.848-0.893-1.141
		c-0.302-0.292-0.599-0.504-0.89-0.634c-0.292-0.13-0.575-0.188-0.849-0.172c-0.274,0.015-0.53,0.098-0.767,0.245l-0.729,0.455
		l3.429,5.485l0.729-0.455c0.237-0.149,0.422-0.343,0.557-0.583s0.207-0.52,0.217-0.839c0.01-0.318-0.048-0.677-0.177-1.073
		S41.529,34.004,41.241,33.542z"/>
	<path d="M48.633,30.2c0.224,0.566,0.375,1.104,0.456,1.611c0.08,0.509,0.089,0.969,0.026,1.38
		c-0.063,0.411-0.199,0.764-0.405,1.059c-0.207,0.294-0.489,0.512-0.846,0.653c-0.357,0.14-0.714,0.174-1.069,0.102
		c-0.355-0.073-0.698-0.236-1.028-0.493s-0.639-0.598-0.927-1.024s-0.544-0.922-0.767-1.488c-0.221-0.561-0.372-1.094-0.456-1.601
		c-0.084-0.506-0.093-0.964-0.028-1.372c0.064-0.407,0.201-0.759,0.411-1.055c0.21-0.295,0.5-0.516,0.871-0.662
		c0.357-0.141,0.712-0.175,1.064-0.101c0.352,0.075,0.691,0.238,1.017,0.493c0.325,0.252,0.632,0.593,0.92,1.019
		C48.159,29.148,48.413,29.64,48.633,30.2z M47.922,30.48c-0.172-0.437-0.366-0.833-0.582-1.189
		c-0.215-0.356-0.445-0.647-0.689-0.876c-0.243-0.227-0.495-0.384-0.754-0.471c-0.259-0.087-0.516-0.08-0.77,0.02
		c-0.266,0.104-0.466,0.278-0.6,0.521c-0.133,0.242-0.21,0.528-0.229,0.859c-0.02,0.33,0.013,0.7,0.099,1.107
		c0.086,0.408,0.214,0.83,0.387,1.267c0.172,0.438,0.366,0.833,0.582,1.189s0.445,0.652,0.688,0.888
		c0.243,0.236,0.496,0.396,0.758,0.482c0.263,0.085,0.527,0.076,0.794-0.029c0.26-0.104,0.455-0.274,0.585-0.515
		c0.131-0.241,0.204-0.53,0.221-0.868c0.017-0.337-0.018-0.71-0.103-1.118C48.223,31.339,48.094,30.917,47.922,30.48z"/>
	<path d="M52.143,33.307l-1.594-7.624l2.923-0.609l0.139,0.667l-2.226,0.465l0.559,2.67l2.082-0.436l0.135,0.646l-2.082,0.435
		l0.619,2.962l2.327-0.486l0.142,0.678L52.143,33.307z"/>
	<path d="M60.321,30.258c0.02,0.344-0.012,0.652-0.095,0.925c-0.082,0.273-0.203,0.508-0.364,0.704
		c-0.16,0.196-0.352,0.351-0.577,0.463c-0.225,0.111-0.466,0.174-0.724,0.189c-0.376,0.021-0.729-0.043-1.055-0.194
		c-0.327-0.149-0.596-0.359-0.807-0.626l0.419-0.564c0.174,0.233,0.387,0.408,0.639,0.526s0.503,0.17,0.754,0.155
		c0.335-0.019,0.608-0.159,0.821-0.421s0.306-0.623,0.28-1.084c-0.012-0.221-0.058-0.412-0.138-0.576
		c-0.079-0.165-0.182-0.31-0.308-0.435s-0.267-0.234-0.423-0.328c-0.155-0.095-0.32-0.181-0.492-0.26
		c-0.208-0.091-0.406-0.195-0.595-0.313c-0.188-0.117-0.355-0.257-0.501-0.418c-0.146-0.16-0.267-0.353-0.363-0.578
		c-0.097-0.227-0.154-0.493-0.171-0.801c-0.021-0.358,0.015-0.674,0.104-0.947c0.09-0.273,0.219-0.504,0.386-0.694
		c0.168-0.189,0.361-0.335,0.579-0.436c0.218-0.101,0.449-0.157,0.694-0.171c0.334-0.02,0.64,0.024,0.915,0.13
		c0.275,0.106,0.51,0.282,0.706,0.528l-0.419,0.563c-0.151-0.204-0.324-0.348-0.517-0.428c-0.194-0.082-0.402-0.116-0.625-0.104
		c-0.146,0.009-0.289,0.044-0.429,0.107c-0.14,0.063-0.263,0.156-0.367,0.279c-0.105,0.124-0.188,0.279-0.247,0.467
		c-0.06,0.187-0.082,0.404-0.068,0.653c0.012,0.219,0.054,0.408,0.126,0.565c0.072,0.158,0.166,0.296,0.281,0.414
		c0.115,0.119,0.247,0.221,0.395,0.308c0.149,0.087,0.302,0.167,0.46,0.238c0.201,0.092,0.401,0.197,0.601,0.319
		c0.199,0.12,0.38,0.264,0.544,0.431c0.163,0.168,0.297,0.365,0.4,0.595C60.243,29.671,60.304,29.944,60.321,30.258z"/>
	<path d="M70.61,29.601c-0.118,0.598-0.281,1.131-0.488,1.603s-0.448,0.862-0.724,1.175c-0.275,0.312-0.58,0.535-0.912,0.671
		c-0.333,0.137-0.688,0.168-1.065,0.093c-0.377-0.074-0.695-0.238-0.955-0.491c-0.26-0.254-0.459-0.577-0.599-0.971
		c-0.139-0.395-0.215-0.849-0.227-1.363s0.041-1.069,0.159-1.667c0.117-0.59,0.276-1.12,0.48-1.592
		c0.204-0.472,0.443-0.861,0.718-1.171c0.274-0.308,0.58-0.529,0.917-0.664c0.336-0.136,0.7-0.165,1.09-0.088
		c0.377,0.075,0.693,0.237,0.95,0.49s0.453,0.574,0.589,0.963c0.137,0.39,0.211,0.842,0.223,1.355
		C70.779,28.458,70.727,29.011,70.61,29.601z M69.86,29.453c0.091-0.46,0.142-0.899,0.153-1.315
		c0.011-0.417-0.024-0.785-0.106-1.108c-0.083-0.322-0.209-0.59-0.381-0.804c-0.171-0.214-0.391-0.347-0.658-0.399
		c-0.281-0.055-0.543-0.018-0.786,0.113c-0.244,0.132-0.462,0.332-0.658,0.6c-0.196,0.268-0.367,0.597-0.516,0.986
		c-0.148,0.389-0.268,0.812-0.358,1.273c-0.091,0.46-0.143,0.899-0.154,1.315c-0.011,0.416,0.022,0.789,0.1,1.118
		c0.078,0.329,0.203,0.601,0.378,0.815c0.175,0.214,0.403,0.349,0.684,0.404c0.274,0.054,0.531,0.016,0.771-0.117
		c0.24-0.132,0.458-0.336,0.655-0.611c0.197-0.274,0.37-0.606,0.518-0.996C69.649,30.337,69.769,29.913,69.86,29.453z"/>
	<path d="M74.908,35.299l0.036-6.974l-0.029-0.012l-2.428,6.007l-0.641-0.259l2.918-7.22l0.845,0.342l-0.048,6.968l0.029,0.012
		l2.428-6.008l0.622,0.252l-2.918,7.222L74.908,35.299z"/>
	<path d="M77.887,36.791l4.061-6.646l2.548,1.558l-0.355,0.582l-1.94-1.186l-1.422,2.327l1.814,1.109l-0.344,0.563l-1.814-1.109
		l-1.578,2.582l2.03,1.24l-0.361,0.591L77.887,36.791z"/>
</g>
<g>
	<path d="M48.496,111.46c-0.196,0.306-0.419,0.553-0.668,0.74c-0.249,0.187-0.529,0.302-0.841,0.344
		c-0.311,0.043-0.655-0.008-1.032-0.151c-0.376-0.143-0.665-0.334-0.866-0.571c-0.201-0.236-0.331-0.508-0.393-0.814
		c-0.061-0.306-0.062-0.638-0.001-0.995s0.163-0.725,0.306-1.102l1.802-4.729l0.693,0.265l-1.767,4.637
		c-0.102,0.267-0.184,0.538-0.247,0.812c-0.063,0.274-0.085,0.531-0.066,0.77c0.019,0.239,0.089,0.452,0.211,0.64
		c0.121,0.188,0.317,0.332,0.588,0.437c0.264,0.1,0.505,0.122,0.724,0.063c0.219-0.058,0.415-0.17,0.587-0.335
		c0.172-0.165,0.326-0.371,0.46-0.613c0.134-0.243,0.254-0.502,0.358-0.775l1.767-4.637l0.693,0.264l-1.801,4.729
		C48.861,110.813,48.692,111.154,48.496,111.46z"/>
	<path d="M54.963,112.552c-0.066,0.339-0.173,0.63-0.321,0.874c-0.149,0.243-0.326,0.439-0.532,0.591
		c-0.206,0.15-0.433,0.252-0.681,0.304c-0.248,0.053-0.5,0.054-0.757,0.004c-0.375-0.073-0.704-0.224-0.987-0.45
		c-0.284-0.228-0.496-0.496-0.637-0.809l0.551-0.441c0.113,0.269,0.278,0.491,0.496,0.668s0.451,0.29,0.701,0.339
		c0.333,0.065,0.637-0.003,0.91-0.204c0.273-0.199,0.454-0.527,0.543-0.98c0.042-0.216,0.044-0.414,0.008-0.593
		c-0.037-0.179-0.103-0.345-0.195-0.498c-0.093-0.152-0.204-0.293-0.333-0.423c-0.129-0.131-0.269-0.255-0.418-0.374
		c-0.182-0.139-0.351-0.29-0.506-0.451c-0.156-0.161-0.286-0.338-0.389-0.53c-0.103-0.191-0.174-0.408-0.213-0.652
		c-0.039-0.242-0.029-0.516,0.03-0.818c0.069-0.353,0.181-0.649,0.336-0.892c0.156-0.242,0.338-0.435,0.55-0.577
		c0.211-0.142,0.436-0.234,0.675-0.276c0.239-0.043,0.48-0.042,0.723,0.006c0.333,0.065,0.621,0.184,0.865,0.354
		c0.244,0.171,0.431,0.401,0.562,0.688l-0.551,0.441c-0.098-0.235-0.231-0.416-0.401-0.543c-0.17-0.127-0.366-0.211-0.588-0.255
		c-0.146-0.028-0.295-0.029-0.448-0.003c-0.152,0.026-0.296,0.086-0.429,0.18c-0.134,0.094-0.252,0.223-0.357,0.39
		c-0.104,0.166-0.181,0.372-0.229,0.616c-0.042,0.216-0.047,0.41-0.016,0.58c0.031,0.171,0.089,0.327,0.173,0.471
		c0.083,0.144,0.187,0.275,0.311,0.397c0.124,0.121,0.255,0.236,0.392,0.345c0.174,0.139,0.344,0.292,0.51,0.459
		c0.165,0.166,0.307,0.352,0.427,0.554c0.118,0.202,0.2,0.428,0.246,0.676C55.031,111.964,55.023,112.243,54.963,112.552z"/>
	<path d="M57.688,114.833L58,107.051l3.02,0.122l-0.028,0.681l-2.299-0.092l-0.11,2.727l2.151,0.085l-0.026,0.66l-2.151-0.086
		l-0.121,3.022l2.405,0.097l-0.028,0.691L57.688,114.833z"/>
	<path d="M67.107,114.428l-1.268-7.685l0.732-0.119l1.268,7.685L67.107,114.428z"/>
	<path d="M70.373,106.409l1.94,6.859l-0.704,0.199l-1.941-6.859L68.281,107l-0.18-0.635l3.489-0.987l0.18,0.635L70.373,106.409z"/>
	<path d="M76.234,105.297c0.09,0.209,0.148,0.405,0.174,0.591c0.026,0.185,0.031,0.357,0.017,0.52
		c-0.015,0.162-0.045,0.32-0.089,0.476c-0.045,0.156-0.096,0.309-0.153,0.462c-0.058,0.169-0.1,0.321-0.126,0.456
		c-0.026,0.135-0.037,0.262-0.032,0.379c0.004,0.118,0.022,0.236,0.054,0.354c0.032,0.117,0.077,0.244,0.135,0.379l0.17,0.395
		l-0.565,0.243l-0.214-0.495c-0.116-0.269-0.181-0.54-0.196-0.813c-0.014-0.273,0.03-0.577,0.133-0.908l0.101-0.355
		c0.062-0.21,0.103-0.42,0.121-0.627c0.018-0.209-0.031-0.446-0.147-0.716c-0.163-0.377-0.366-0.638-0.609-0.779
		c-0.243-0.144-0.507-0.153-0.792-0.03c-0.149,0.064-0.266,0.153-0.348,0.265s-0.143,0.239-0.181,0.384s-0.053,0.296-0.045,0.457
		c0.007,0.16,0.034,0.319,0.078,0.475l-0.612,0.134c-0.138-0.516-0.137-0.985,0.003-1.41c0.14-0.424,0.444-0.737,0.911-0.938
		c0.448-0.193,0.869-0.195,1.262-0.006C75.679,104.375,75.995,104.746,76.234,105.297z M77.346,110.917
		c0.06,0.141,0.07,0.279,0.028,0.413c-0.042,0.134-0.128,0.229-0.258,0.285c-0.13,0.056-0.259,0.055-0.389-0.005
		c-0.129-0.061-0.225-0.16-0.286-0.303c-0.062-0.141-0.069-0.279-0.023-0.414c0.045-0.136,0.132-0.231,0.263-0.288
		c0.123-0.054,0.25-0.05,0.379,0.01C77.189,110.675,77.285,110.776,77.346,110.917z"/>
</g>
<circle fill="#3A3A3A" cx="60.5" cy="125.583" r="1.833"/>
<rect x="103" y="70.417" fill="#3A3A3A" width="10" height="2"/>
<rect x="10" y="70.417" fill="#3A3A3A" width="10" height="2"/>
</svg>
