<?xml version="1.0" encoding="utf-8"?>
<!-- Generator: Adobe Illustrator 15.0.0, SVG Export Plug-In  -->
<!DOCTYPE svg PUBLIC "-//W3C//DTD SVG 1.1//EN" "http://www.w3.org/Graphics/SVG/1.1/DTD/svg11.dtd" [
	<!ENTITY ns_flows "http://ns.adobe.com/Flows/1.0/">
]>
<svg version="1.1"
	 xmlns="http://www.w3.org/2000/svg" xmlns:xlink="http://www.w3.org/1999/xlink" xmlns:a="http://ns.adobe.com/AdobeSVGViewerExtensions/3.0/"
	 x="0px" y="0px" width="223px" height="102px" viewBox="-0.912 -0.228 223 102"
	 overflow="visible" enable-background="new -0.912 -0.228 223 102" xml:space="preserve">
<defs>
</defs>
<path fill="#FFFFFF" d="M13.579,0v4.526H6.79v10.186h9.052v4.526H6.79v42.125H2.263V19.239H0v-4.526h2.263V0H13.579z"/>
<path fill="#FFFFFF" d="M38.23,27.667c3.373,3.858,5.059,8.509,5.059,13.956c0,5.446-1.686,10.098-5.059,13.954
	c-3.374,3.859-7.445,5.787-12.216,5.787c-4.771,0-8.843-1.928-12.216-5.787C10.426,51.72,8.74,47.068,8.74,41.623
	c0-5.446,1.686-10.098,5.059-13.956c3.373-3.858,7.444-5.788,12.216-5.788C30.785,21.879,34.857,23.809,38.23,27.667z
	 M34.738,52.097c2.41-2.886,3.615-6.379,3.615-10.475c0-4.097-1.206-7.589-3.615-10.476c-2.411-2.888-5.318-4.332-8.724-4.332
	s-6.314,1.444-8.724,4.332c-2.411,2.887-3.616,6.379-3.616,10.476c0,4.096,1.205,7.588,3.616,10.475
	c2.41,2.888,5.318,4.331,8.724,4.331S32.328,54.985,34.738,52.097z"/>
<path fill="#FFFFFF" d="M49.99,29.283v32.081h-4.936V21.879h4.936l7.403,9.871v-9.871h4.936v39.484h-4.936v-22.21L49.99,29.283z"/>
<path fill="#FFFFFF" d="M78.795,21.879v4.936H73.86v34.549h-4.936V26.815h-4.936v-4.936H78.795z"/>
<path fill="#FFFFFF" d="M97.654,21.569c4.771,0,8.843,1.444,12.215,4.331c3.373,2.887,5.06,6.379,5.06,10.476
	c0,4.098-1.687,7.585-5.06,10.464c-2.139,1.843-4.564,3.102-7.28,3.776v10.439h-4.935V21.569z M102.589,27.294v18.164
	c1.383-0.478,2.649-1.176,3.801-2.099c2.402-1.925,3.603-4.252,3.603-6.984c0-2.73-1.201-5.059-3.603-6.983
	C105.238,28.472,103.972,27.772,102.589,27.294z"/>
<path fill="#FFFFFF" d="M145.457,27.667c3.371,3.858,5.058,8.509,5.058,13.956c0,5.446-1.687,10.098-5.058,13.954
	c-3.374,3.859-7.445,5.787-12.217,5.787s-8.844-1.928-12.216-5.787c-3.372-3.856-5.06-8.508-5.06-13.954
	c0-5.446,1.688-10.098,5.06-13.956c3.372-3.858,7.444-5.788,12.216-5.788S142.083,23.809,145.457,27.667z M141.965,52.097
	c2.408-2.886,3.614-6.379,3.614-10.475c0-4.097-1.206-7.589-3.614-10.476c-2.412-2.888-5.319-4.332-8.725-4.332
	c-3.406,0-6.314,1.444-8.725,4.332c-2.41,2.887-3.615,6.379-3.615,10.476c0,4.096,1.205,7.588,3.615,10.475
	c2.41,2.888,5.318,4.331,8.725,4.331C136.646,56.428,139.553,54.985,141.965,52.097z"/>
<path fill="#FFFFFF" d="M161.936,21.879v4.936h-4.937v34.549h-4.936V26.815h-4.936v-4.936H161.936z"/>
<path fill="#FFFFFF" d="M178.101,21.879v4.936h-4.937v34.549h-4.936V26.815h-4.936v-4.936H178.101z"/>
<path fill="#FFFFFF" d="M179.445,21.879h4.936v39.484h-4.936V21.879z"/>
<path fill="#FFFFFF" d="M190.664,29.283v32.081h-4.937V21.879h4.937l7.402,9.871v-9.871h4.936v39.484h-4.936v-22.21L190.664,29.283z
	"/>
<path fill="#FFFFFF" d="M221.7,61.364c-4.771,0-8.843-1.928-12.216-5.787c-3.372-3.856-5.059-8.508-5.059-13.954
	c0-5.446,1.687-10.098,5.059-13.956c3.373-3.858,7.445-5.788,12.216-5.788v4.936c-3.405,0-6.313,1.444-8.724,4.332
	c-2.409,2.887-3.615,6.379-3.615,10.476c0,4.096,1.209,7.584,3.628,10.464c1.135,1.381,2.394,2.435,3.775,3.158v-8.687h4.936V61.364
	z"/>
<path fill="#FFFFFF" d="M78.115,63.25l0.007-4.392l0.151,2.196l-0.158-2.196c0.552-0.042,13.515-1.175,13.515-14.826
	c0-5.866-2.574-9.019-4.642-11.551l-0.309-0.379c-0.265-0.326-0.625-0.702-1.043-1.139c-2.065-2.157-5.521-5.767-5.521-12.504
	c0-12.182,9.876-17.204,15.292-18.213c0.073-0.014,0.885-0.183,0.957-0.195v4.496c-0.477,0.084-11.847,2.235-11.847,13.913
	c0,4.97,2.383,7.459,4.298,9.459c0.464,0.485,0.903,0.943,1.281,1.409l0.301,0.37c2.244,2.748,5.635,6.9,5.635,14.335
	c0,14.135-11.344,18.729-17.469,19.207C78.517,63.244,78.347,63.246,78.115,63.25z"/>
<path fill="#FFFFFF" d="M135.494,96.589c-2.938-1.781-8.125-4.25-13.812-4.25s-10.719,3.188-11.688,3.656s0.198,0.479,0.198,0.479
	c0.834,0.334-0.709,0.875-1.417,0.833s-1.042-0.5-1.042-1.292c0-0.791,1.334-1.916,1.792-2.375c0.458-0.458,0.167-0.916,0-1.041
	c-0.157-0.117-2.886-2.109-3.217-2.351v-0.024c0,0-0.012,0.008-0.017,0.012c-0.005-0.004-0.017-0.012-0.017-0.012v0.024
	c-0.331,0.241-3.06,2.233-3.217,2.351c-0.167,0.125-0.458,0.583,0,1.041c0.458,0.459,1.792,1.584,1.792,2.375
	c0,0.792-0.334,1.25-1.042,1.292s-2.251-0.499-1.417-0.833c0,0,1.167-0.011,0.198-0.479s-6-3.656-11.688-3.656
	s-10.875,2.469-13.812,4.25s-2.875,2.406-2.781,2.562s0.625,0.281,1.531-0.344s4.25-2.188,6.531-2.156s5.062,1.719,9.156,1.812
	s5.594-0.656,6.156-0.906s2.188-0.781,3.344,0.062c0.999,0.729,3.79,2.723,5.035,3.251c0,0,0.139,0.113,0.229,0.086
	c0.091,0.027,0.229-0.086,0.229-0.086c1.245-0.528,4.036-2.521,5.035-3.251c1.157-0.844,2.782-0.312,3.344-0.062
	s2.062,1,6.156,0.906s6.875-1.781,9.156-1.812s5.625,1.531,6.531,2.156s1.438,0.5,1.531,0.344S138.432,98.371,135.494,96.589z"/>
</svg>
