<?xml version="1.0" encoding="utf-8"?>
<!-- Generator: Adobe Illustrator 15.0.0, SVG Export Plug-In  -->
<!DOCTYPE svg PUBLIC "-//W3C//DTD SVG 1.1//EN" "http://www.w3.org/Graphics/SVG/1.1/DTD/svg11.dtd" [
	<!ENTITY ns_flows "http://ns.adobe.com/Flows/1.0/">
]>
<svg version="1.1"
	 xmlns="http://www.w3.org/2000/svg" xmlns:xlink="http://www.w3.org/1999/xlink" xmlns:a="http://ns.adobe.com/AdobeSVGViewerExtensions/3.0/"
	 x="0px" y="0px" width="80px" height="24px" viewBox="-0.912 -0.84 80 24"
	 overflow="visible" enable-background="new -0.912 -0.84 80 24" xml:space="preserve">
<defs>
</defs>
<path fill="#FFFFFF" d="M4.816,0v1.605H2.408v3.612h3.21v1.606h-3.21v14.941H0.803V6.824H0V5.218h0.803V0H4.816z"/>
<path fill="#FFFFFF" d="M13.56,9.813c1.196,1.368,1.794,3.019,1.794,4.95s-0.598,3.581-1.794,4.948
	c-1.197,1.369-2.641,2.054-4.333,2.054c-1.693,0-3.137-0.685-4.333-2.054c-1.196-1.367-1.794-3.017-1.794-4.948
	s0.598-3.582,1.794-4.95S7.535,7.76,9.228,7.76C10.919,7.76,12.363,8.445,13.56,9.813z M12.321,18.479
	c0.855-1.023,1.283-2.264,1.283-3.715c0-1.454-0.428-2.691-1.283-3.716c-0.855-1.025-1.886-1.536-3.094-1.536
	c-1.208,0-2.239,0.511-3.094,1.536C5.277,12.072,4.85,13.31,4.85,14.764c0,1.451,0.427,2.691,1.283,3.715
	c0.855,1.025,1.886,1.536,3.094,1.536C10.436,20.015,11.466,19.504,12.321,18.479z"/>
<path fill="#FFFFFF" d="M17.731,10.388v11.378H15.98V7.76h1.751l2.626,3.502V7.76h1.75v14.006h-1.75v-7.879L17.731,10.388z"/>
<path fill="#FFFFFF" d="M27.949,7.76v1.752h-1.751v12.254h-1.75V9.512h-1.751V7.76H27.949z"/>
<path fill="#FFFFFF" d="M34.638,7.649c1.691,0,3.136,0.513,4.333,1.537c1.196,1.024,1.795,2.264,1.795,3.716
	c0,1.453-0.6,2.69-1.795,3.712c-0.758,0.652-1.619,1.1-2.582,1.339v3.703h-1.75V7.649z M36.388,9.681v6.443
	c0.491-0.169,0.939-0.417,1.348-0.744c0.853-0.684,1.278-1.509,1.278-2.478s-0.426-1.795-1.278-2.478
	C37.328,10.099,36.879,9.85,36.388,9.681z"/>
<path fill="#FFFFFF" d="M51.593,9.813c1.196,1.368,1.794,3.019,1.794,4.95s-0.598,3.581-1.794,4.948
	c-1.196,1.369-2.641,2.054-4.333,2.054s-3.137-0.685-4.333-2.054c-1.196-1.367-1.794-3.017-1.794-4.948s0.598-3.582,1.794-4.95
	S45.567,7.76,47.26,7.76S50.396,8.445,51.593,9.813z M50.354,18.479c0.854-1.023,1.282-2.264,1.282-3.715
	c0-1.454-0.428-2.691-1.282-3.716c-0.855-1.025-1.887-1.536-3.095-1.536s-2.24,0.511-3.094,1.536
	c-0.855,1.024-1.283,2.262-1.283,3.716c0,1.451,0.428,2.691,1.283,3.715c0.854,1.025,1.886,1.536,3.094,1.536
	S49.499,19.504,50.354,18.479z"/>
<path fill="#FFFFFF" d="M57.438,7.76v1.752h-1.75v12.254h-1.751V9.512h-1.751V7.76H57.438z"/>
<path fill="#FFFFFF" d="M63.172,7.76v1.752h-1.751v12.254H59.67V9.512h-1.75V7.76H63.172z"/>
<path fill="#FFFFFF" d="M63.648,7.76h1.751v14.006h-1.751V7.76z"/>
<path fill="#FFFFFF" d="M67.627,10.388v11.378h-1.75V7.76h1.75l2.627,3.502V7.76h1.75v14.006h-1.75v-7.879L67.627,10.388z"/>
<path fill="#FFFFFF" d="M78.637,21.766c-1.693,0-3.137-0.685-4.334-2.054c-1.195-1.367-1.793-3.017-1.793-4.948
	s0.598-3.582,1.793-4.95C75.5,8.445,76.943,7.76,78.637,7.76v1.752c-1.208,0-2.24,0.511-3.095,1.536
	c-0.854,1.024-1.282,2.262-1.282,3.716c0,1.451,0.43,2.689,1.287,3.711c0.402,0.489,0.849,0.863,1.339,1.12v-3.081h1.751V21.766z"/>
<path fill="#FFFFFF" d="M27.707,22.435l0.002-1.558l0.054,0.779l-0.056-0.779c0.196-0.016,4.794-0.417,4.794-5.259
	c0-2.08-0.913-3.199-1.646-4.098l-0.109-0.135c-0.094-0.115-0.222-0.248-0.371-0.403c-0.732-0.765-1.958-2.046-1.958-4.435
	c0-4.322,3.503-6.103,5.424-6.46c0.027-0.006,0.314-0.065,0.34-0.07v1.595c-0.169,0.03-4.202,0.793-4.202,4.936
	c0,1.762,0.846,2.646,1.524,3.354c0.165,0.172,0.32,0.335,0.455,0.5l0.106,0.132c0.796,0.975,1.999,2.446,1.999,5.084
	c0,5.013-4.024,6.644-6.197,6.812C27.85,22.432,27.79,22.433,27.707,22.435z"/>
</svg>
