<?xml version="1.0" encoding="utf-8"?>
<!-- Generator: Adobe Illustrator 15.0.0, SVG Export Plug-In . SVG Version: 6.00 Build 0)  -->
<!DOCTYPE svg PUBLIC "-//W3C//DTD SVG 1.1//EN" "http://www.w3.org/Graphics/SVG/1.1/DTD/svg11.dtd">
<svg version="1.1" id="Layer_1" xmlns="http://www.w3.org/2000/svg" xmlns:xlink="http://www.w3.org/1999/xlink" x="0px" y="0px"
	 width="147px" height="127px" viewBox="0 0 147 127" enable-background="new 0 0 147 127" xml:space="preserve">
<g>
	<g>
		<path fill="#FFFFFF" d="M36.939,39.275l5.564-7.41h4.647v31.898h-4.862V39.49l-5.349,7.139L31.59,39.49v24.273h-4.862V31.865
			h4.649L36.939,39.275z"/>
		<path fill="#FFFFFF" d="M72.573,36.564c2.735,3.131,4.104,6.882,4.104,11.25c0,4.372-1.368,8.122-4.104,11.253
			c-2.737,3.131-6.069,4.696-9.999,4.696c-3.927,0-7.26-1.565-9.996-4.696c-2.737-3.131-4.104-6.881-4.104-11.253
			c0-4.368,1.367-8.119,4.104-11.25c2.735-3.134,6.069-4.699,9.996-4.699C66.504,31.865,69.836,33.431,72.573,36.564z
			 M69.082,55.818c1.822-2.186,2.732-4.852,2.732-8.004c0-3.149-0.91-5.817-2.732-8.004c-1.823-2.184-3.992-3.277-6.507-3.277
			s-4.684,1.094-6.505,3.277c-1.822,2.187-2.732,4.854-2.732,8.004c0,3.152,0.91,5.818,2.732,8.004
			c1.821,2.186,3.989,3.277,6.505,3.277S67.259,58.004,69.082,55.818z"/>
		<path fill="#FFFFFF" d="M82.864,39.49v24.273H78V31.865h4.65l5.076,6.769v-6.769h4.862v31.898h-4.862V45.966L82.864,39.49z"/>
		<path fill="#FFFFFF" d="M107.352,31.865v4.668h-5.835v3.112h7.78v4.669h-7.78v14.781h5.835v4.668H96.655V44.314H94.71v-4.669
			h1.945v-7.78H107.352z"/>
		<path fill="#FFFFFF" d="M119.958,44.002v19.762h-4.862V44.002l-6.069-12.137h4.939l3.559,7.119l3.56-7.119h4.94L119.958,44.002z"
			/>
	</g>
	<g>
		<path fill="#FFFFFF" d="M22.445,18.88c0.042-0.193,0.13-0.322,0.264-0.389c0.135-0.065,0.289-0.087,0.462-0.064
			c0.172,0.021,0.35,0.082,0.533,0.181c0.182,0.097,0.343,0.223,0.483,0.375c0.14,0.153,0.246,0.32,0.318,0.504
			c0.072,0.182,0.082,0.365,0.028,0.548c-0.04,0.126-0.108,0.369-0.205,0.732s-0.223,0.802-0.378,1.315
			c-0.156,0.512-0.337,1.081-0.544,1.705c-0.208,0.624-0.44,1.261-0.699,1.906c0.298-0.245,0.57-0.507,0.815-0.785
			c0.245-0.277,0.465-0.555,0.661-0.831c0.196-0.277,0.365-0.548,0.508-0.812c0.142-0.265,0.249-0.511,0.318-0.739
			c0.072-0.218,0.173-0.371,0.305-0.458c0.131-0.089,0.257-0.118,0.375-0.088c0.119,0.029,0.214,0.106,0.285,0.235
			c0.071,0.129,0.08,0.295,0.029,0.499c-0.067,0.249-0.185,0.563-0.352,0.94c-0.166,0.378-0.41,0.781-0.729,1.211
			c-0.319,0.429-0.716,0.857-1.189,1.284c-0.473,0.426-1.05,0.814-1.73,1.163c-0.296,0.618-0.615,1.204-0.957,1.757
			c-0.342,0.554-0.708,1.028-1.098,1.422s-0.797,0.688-1.223,0.885s-0.868,0.251-1.329,0.166s-0.797-0.284-1.013-0.597
			c-0.214-0.313-0.239-0.687-0.074-1.119c0.166-0.432,0.553-0.893,1.161-1.38c0.608-0.486,1.505-0.954,2.689-1.397
			c0.036-0.07,0.064-0.142,0.088-0.218c0.024-0.073,0.047-0.149,0.07-0.229c-0.206,0.201-0.433,0.355-0.683,0.463
			c-0.25,0.109-0.518,0.152-0.806,0.135c-0.398-0.027-0.709-0.161-0.931-0.402c-0.222-0.241-0.377-0.556-0.464-0.945
			c-0.087-0.39-0.114-0.845-0.081-1.365c0.034-0.52,0.108-1.069,0.223-1.649c0.114-0.578,0.264-1.177,0.45-1.792
			c0.186-0.616,0.39-1.223,0.611-1.821c0.073-0.207,0.189-0.345,0.352-0.414c0.161-0.07,0.334-0.089,0.52-0.057
			c0.185,0.031,0.376,0.106,0.572,0.225s0.363,0.257,0.504,0.414c0.141,0.157,0.241,0.329,0.303,0.514s0.064,0.356,0.007,0.518
			c-0.151,0.37-0.316,0.761-0.495,1.173s-0.353,0.82-0.522,1.226c-0.168,0.405-0.326,0.795-0.471,1.171
			c-0.145,0.374-0.257,0.705-0.336,0.996c-0.08,0.289-0.112,0.529-0.099,0.72c0.013,0.19,0.092,0.299,0.237,0.324
			c0.181,0.043,0.36,0.001,0.537-0.125s0.346-0.307,0.509-0.54c0.162-0.234,0.32-0.504,0.474-0.809s0.293-0.624,0.415-0.957
			c0.299-0.772,0.577-1.663,0.835-2.673l0.49,0.235c-0.115,0.749-0.272,1.465-0.472,2.148c-0.084,0.297-0.181,0.598-0.291,0.901
			c-0.11,0.305-0.234,0.603-0.374,0.896c-0.139,0.291-0.294,0.565-0.465,0.822c-0.171,0.258-0.354,0.479-0.55,0.67
			c0.347-0.998,0.694-2.145,1.043-3.439C21.708,21.868,22.069,20.44,22.445,18.88z M17.679,30.519
			c0.33,0.091,0.657-0.059,0.981-0.45c0.323-0.393,0.661-0.988,1.01-1.789c-0.604,0.261-1.076,0.519-1.418,0.77
			c-0.341,0.251-0.582,0.479-0.721,0.683c-0.139,0.203-0.189,0.375-0.15,0.513C17.421,30.381,17.52,30.474,17.679,30.519z"/>
		<path fill="#FFFFFF" d="M28.528,17.641c0.118-0.024,0.22-0.046,0.305-0.062c0.086-0.016,0.173-0.023,0.26-0.023
			c0.584-0.073,1.078-0.051,1.482,0.069c0.404,0.119,0.733,0.311,0.986,0.575c0.252,0.266,0.43,0.586,0.532,0.963
			s0.139,0.78,0.11,1.212c-0.028,0.432-0.117,0.882-0.267,1.351c-0.15,0.468-0.352,0.922-0.604,1.358
			c0.399-0.137,0.709-0.332,0.93-0.584c0.221-0.254,0.393-0.545,0.516-0.88c0.073-0.207,0.178-0.356,0.314-0.451
			c0.136-0.094,0.268-0.132,0.396-0.115s0.228,0.087,0.298,0.21c0.07,0.123,0.075,0.292,0.014,0.508
			c-0.06,0.227-0.171,0.474-0.335,0.741c-0.165,0.268-0.379,0.521-0.646,0.757c-0.267,0.235-0.587,0.443-0.959,0.621
			c-0.373,0.179-0.809,0.289-1.309,0.329c-0.468,0.552-1.012,1.013-1.629,1.381c-0.619,0.367-1.292,0.575-2.021,0.623
			c-0.522,0.032-0.941-0.091-1.256-0.37c-0.315-0.279-0.534-0.655-0.659-1.128c-0.125-0.472-0.157-1.012-0.096-1.617
			c0.062-0.604,0.208-1.217,0.438-1.832s0.545-1.21,0.946-1.781s0.873-1.05,1.417-1.437C27.921,17.875,28.2,17.736,28.528,17.641z
			 M26.681,20.637c-0.268,0.495-0.471,1.014-0.612,1.558c-0.141,0.545-0.207,1.038-0.201,1.482c0.006,0.443,0.095,0.802,0.267,1.077
			c0.171,0.275,0.436,0.39,0.792,0.346c0.313-0.039,0.607-0.166,0.883-0.382c0.274-0.216,0.522-0.49,0.744-0.825
			c-0.609-0.308-1.069-0.765-1.38-1.367S26.697,21.294,26.681,20.637z M29.007,23.046c0.223-0.5,0.394-1.021,0.513-1.562
			c0.119-0.542,0.173-1.033,0.161-1.477c-0.012-0.443-0.094-0.798-0.248-1.063c-0.154-0.266-0.386-0.368-0.697-0.309
			c-0.234,0.062-0.426,0.193-0.576,0.395c-0.15,0.199-0.264,0.438-0.338,0.717c-0.075,0.277-0.112,0.579-0.109,0.902
			c0.001,0.322,0.053,0.641,0.152,0.951c0.099,0.312,0.241,0.596,0.427,0.853C28.477,22.709,28.715,22.907,29.007,23.046z"/>
		<path fill="#FFFFFF" d="M37.707,17.069c0.084-0.286,0.27-0.454,0.554-0.506c0.284-0.053,0.579-0.023,0.883,0.087
			s0.565,0.286,0.782,0.527c0.217,0.242,0.306,0.514,0.267,0.814c-0.03,0.202-0.118,0.484-0.264,0.848
			c-0.146,0.364-0.312,0.761-0.493,1.189c-0.183,0.429-0.37,0.864-0.562,1.305c-0.192,0.441-0.349,0.834-0.47,1.178
			c-0.122,0.345-0.188,0.619-0.201,0.823c-0.014,0.206,0.061,0.292,0.222,0.261c0.246-0.053,0.473-0.188,0.682-0.406
			c0.208-0.218,0.396-0.475,0.562-0.77c0.166-0.295,0.311-0.604,0.435-0.927c0.124-0.323,0.225-0.61,0.305-0.861
			c0.077-0.252,0.185-0.43,0.32-0.534c0.135-0.104,0.264-0.143,0.388-0.113c0.124,0.027,0.218,0.12,0.282,0.277
			c0.064,0.156,0.058,0.376-0.016,0.66c-0.074,0.283-0.192,0.632-0.354,1.048c-0.162,0.415-0.369,0.82-0.622,1.214
			c-0.253,0.394-0.555,0.741-0.907,1.043c-0.352,0.303-0.754,0.481-1.208,0.538c-0.259,0.033-0.479,0.002-0.662-0.091
			c-0.182-0.092-0.328-0.23-0.438-0.414s-0.194-0.409-0.25-0.677c-0.056-0.266-0.092-0.558-0.109-0.875
			c-0.143,0.348-0.307,0.683-0.491,1.009c-0.185,0.325-0.391,0.605-0.619,0.843c-0.228,0.236-0.477,0.424-0.745,0.562
			c-0.268,0.139-0.557,0.193-0.868,0.167c-0.398-0.027-0.708-0.161-0.931-0.402s-0.377-0.556-0.464-0.946
			c-0.087-0.39-0.114-0.844-0.08-1.364c0.034-0.52,0.107-1.069,0.222-1.649c0.114-0.578,0.264-1.177,0.45-1.792
			c0.187-0.616,0.391-1.224,0.612-1.821c0.073-0.207,0.189-0.345,0.352-0.415c0.161-0.069,0.334-0.088,0.519-0.056
			c0.186,0.031,0.376,0.105,0.572,0.224c0.196,0.119,0.364,0.258,0.504,0.414c0.14,0.158,0.241,0.33,0.303,0.514
			c0.061,0.185,0.063,0.357,0.007,0.519c-0.151,0.369-0.316,0.76-0.495,1.172c-0.178,0.412-0.353,0.821-0.521,1.227
			c-0.169,0.404-0.327,0.795-0.472,1.17s-0.257,0.706-0.335,0.996c-0.08,0.29-0.113,0.53-0.099,0.72
			c0.013,0.191,0.092,0.3,0.237,0.325c0.191,0.041,0.383-0.01,0.574-0.154c0.19-0.146,0.374-0.349,0.549-0.611
			c0.175-0.264,0.34-0.569,0.494-0.919c0.154-0.348,0.297-0.696,0.428-1.05c0.132-0.35,0.246-0.688,0.343-1.013
			c0.096-0.325,0.174-0.601,0.233-0.827c0.105-0.562,0.215-1.067,0.329-1.515S37.643,17.264,37.707,17.069z"/>
		<path fill="#FFFFFF" d="M45.423,18.754c-0.029,0.201-0.1,0.449-0.211,0.742c-0.112,0.293-0.236,0.598-0.372,0.911
			c-0.137,0.312-0.271,0.623-0.402,0.931c-0.132,0.307-0.234,0.58-0.309,0.82c-0.074,0.239-0.103,0.427-0.086,0.562
			c0.017,0.136,0.104,0.183,0.265,0.141c0.246-0.053,0.473-0.188,0.681-0.407c0.209-0.217,0.399-0.475,0.571-0.771
			c0.171-0.295,0.32-0.605,0.443-0.927c0.125-0.323,0.22-0.61,0.288-0.859c0.078-0.252,0.185-0.43,0.32-0.534
			c0.135-0.104,0.264-0.144,0.389-0.114c0.124,0.028,0.218,0.121,0.281,0.277c0.064,0.157,0.058,0.377-0.016,0.66
			c-0.063,0.282-0.176,0.631-0.339,1.047c-0.161,0.415-0.369,0.819-0.621,1.213c-0.253,0.394-0.555,0.742-0.906,1.044
			c-0.353,0.302-0.755,0.481-1.208,0.538c-0.4,0.05-0.715-0.012-0.945-0.188c-0.23-0.174-0.403-0.415-0.519-0.725
			c-0.116-0.309-0.179-0.669-0.192-1.079s0.003-0.828,0.048-1.257c0.045-0.428,0.11-0.845,0.197-1.25
			c0.087-0.406,0.166-0.757,0.239-1.051l-0.002-0.017c0.042-0.279-0.009-0.489-0.153-0.631c-0.144-0.142-0.306-0.277-0.487-0.408
			c-0.06,0.228-0.134,0.503-0.226,0.826c-0.091,0.325-0.181,0.654-0.271,0.989c-0.089,0.334-0.179,0.654-0.267,0.955
			s-0.16,0.543-0.214,0.727c-0.079,0.251-0.189,0.418-0.332,0.502c-0.144,0.084-0.276,0.101-0.397,0.05
			c-0.122-0.051-0.214-0.151-0.277-0.303c-0.062-0.151-0.052-0.331,0.032-0.539c0.059-0.14,0.128-0.334,0.206-0.585
			s0.163-0.522,0.252-0.813c0.089-0.292,0.181-0.594,0.273-0.907c0.092-0.312,0.177-0.601,0.254-0.862
			c0.077-0.263,0.139-0.486,0.187-0.674c0.048-0.187,0.076-0.298,0.082-0.331c-0.052-0.246-0.035-0.55,0.051-0.912
			c0.055-0.259,0.159-0.442,0.31-0.549c0.15-0.106,0.297-0.146,0.438-0.121c0.14,0.026,0.249,0.109,0.327,0.247
			c0.077,0.14,0.081,0.323,0.011,0.551c-0.091,0.242-0.122,0.435-0.092,0.579c0.028,0.145,0.11,0.271,0.246,0.381
			c0.134,0.109,0.318,0.222,0.552,0.334c0.233,0.113,0.521,0.264,0.863,0.452c0.148,0.047,0.291,0.111,0.428,0.193
			c0.136,0.081,0.253,0.182,0.351,0.302c0.097,0.119,0.171,0.25,0.222,0.393C45.434,18.447,45.447,18.598,45.423,18.754z"/>
	</g>
</g>
<g>
	<circle fill="#BD1622" cx="74.677" cy="77.217" r="3.132"/>
	<rect x="27" y="76" fill="#BD1622" width="41" height="2"/>
	<rect x="81" y="76" fill="#BD1622" width="40" height="2"/>
</g>
<g>
	<path fill="#FFFFFF" d="M24.386,93.229h1.224v8.396h-1.224V93.229z"/>
	<path fill="#FFFFFF" d="M30.636,96.814c1.319,0,2.375,1.08,2.375,2.375c0,1.319-1.067,2.435-2.375,2.435h-3.25v-1.199h3.034
		c0.72,0,1.295-0.516,1.295-1.224c0-0.72-0.576-1.235-1.295-1.235h-1.163c-1.295,0-2.327-1.115-2.327-2.398s1.031-2.339,2.327-2.339
		h2.674v1.14h-2.53c-0.672,0-1.224,0.552-1.224,1.224c0,0.671,0.552,1.223,1.224,1.223H30.636z"/>
	<path fill="#FFFFFF" d="M37.214,93.229h1.127l4.294,5.289v-5.289h1.151v8.539l-5.421-6.476v6.332h-1.151V93.229z"/>
	<path fill="#FFFFFF" d="M49.32,93.085c2.387,0,4.306,1.942,4.306,4.354c0,2.398-1.919,4.342-4.306,4.342s-4.306-1.943-4.306-4.342
		C45.014,95.027,46.933,93.085,49.32,93.085z M49.32,100.581c1.643,0,2.986-1.416,2.986-3.143c0-1.739-1.343-3.154-2.986-3.154
		s-2.986,1.415-2.986,3.154C46.333,99.165,47.677,100.581,49.32,100.581z"/>
	<path fill="#FFFFFF" d="M61.608,96.778h4.366c0.036,0.216,0.048,0.432,0.048,0.66c0,2.398-1.799,4.342-4.306,4.342
		c-2.387,0-4.306-1.943-4.306-4.342c0-2.411,1.919-4.354,4.306-4.354c1.403,0,2.663,0.684,3.442,1.739c0,0-1.019,0.791-1.019,0.779
		c-0.54-0.792-1.427-1.319-2.423-1.319c-1.643,0-2.986,1.415-2.986,3.154c0,1.727,1.343,3.143,2.986,3.143
		c1.691,0,2.902-1.104,2.986-2.675h-3.094V96.778z"/>
	<path fill="#FFFFFF" d="M71.22,93.085c2.387,0,4.306,1.942,4.306,4.354c0,2.398-1.919,4.342-4.306,4.342s-4.306-1.943-4.306-4.342
		C66.914,95.027,68.833,93.085,71.22,93.085z M71.22,100.581c1.643,0,2.986-1.416,2.986-3.143c0-1.739-1.343-3.154-2.986-3.154
		s-2.986,1.415-2.986,3.154C68.233,99.165,69.577,100.581,71.22,100.581z"/>
	<path fill="#FFFFFF" d="M80.604,93.085c2.387,0,4.306,1.942,4.306,4.354c0,2.398-1.919,4.342-4.306,4.342s-4.306-1.943-4.306-4.342
		C76.298,95.027,78.217,93.085,80.604,93.085z M80.604,100.581c1.643,0,2.986-1.416,2.986-3.143c0-1.739-1.343-3.154-2.986-3.154
		s-2.986,1.415-2.986,3.154C77.618,99.165,78.961,100.581,80.604,100.581z"/>
	<path fill="#FFFFFF" d="M86.198,93.229h2.938c2.255,0,4.066,1.883,4.066,4.198c0,2.314-1.751,4.197-4.066,4.197h-2.938V93.229z
		 M88.992,100.545c1.715,0,2.938-1.403,2.938-3.118c0-1.716-1.235-3.119-2.938-3.119h-1.571v6.237H88.992z"/>
	<path fill="#FFFFFF" d="M97.513,93.229h1.224v3.61h3.274v-3.61h1.223v8.396h-1.223v-3.706h-3.274v3.706h-1.224V93.229z"/>
	<path fill="#FFFFFF" d="M105.038,93.229h4.894v1.176h-3.67v2.026h3.502v1.151h-3.502v2.843h3.742v1.199h-4.965V93.229z"/>
	<path fill="#FFFFFF" d="M117.358,101.276v0.348h-1.248v-0.348c0-0.924-0.684-2.111-1.907-2.111h-1.487v2.459h-1.235v-8.396h2.723
		c1.787,0,3.154,1.247,3.154,2.975c0,1.199-0.732,2.075-1.403,2.423C116.999,99.226,117.358,100.269,117.358,101.276z
		 M114.348,94.308h-1.631v3.778h1.631c0.995,0,1.739-0.947,1.739-1.883C116.087,95.231,115.343,94.308,114.348,94.308z"/>
	<path fill="#FFFFFF" d="M118.969,93.229h4.894v1.176h-3.67v2.026h3.502v1.151h-3.502v2.843h3.742v1.199h-4.965V93.229z"/>
</g>
<path fill="#FFFFFF" d="M138.584,127H7.416l0.084-1.916c0-3.309-2.691-6.084-6-6.084H0V7h1.5c3.214,0,5.843-2.435,5.985-5.649
	L7.548,0h130.904l0.063,1.434c0.142,3.215,2.771,5.733,5.985,5.733c0.272,0,0.538-0.026,0.801-0.061L147,6.878v112.577l-1.699-0.228
	c-0.263-0.035-0.529-0.061-0.801-0.061c-3.309,0-6,2.691-6,6L138.584,127z M10.425,124h125.15c0.553-4.251,4.084-7.58,8.425-7.819
	V10.153c-4.11-0.224-7.492-3.196-8.305-7.153H10.305C9.559,6.631,6.65,9.433,3,10.043v106.249
	C6.874,116.944,9.915,120.08,10.425,124z"/>
</svg>
