<?xml version="1.0" encoding="utf-8"?>
<!-- Generator: Adobe Illustrator 15.0.0, SVG Export Plug-In . SVG Version: 6.00 Build 0)  -->
<!DOCTYPE svg PUBLIC "-//W3C//DTD SVG 1.1//EN" "http://www.w3.org/Graphics/SVG/1.1/DTD/svg11.dtd">
<svg version="1.1" id="Layer_1" xmlns="http://www.w3.org/2000/svg" xmlns:xlink="http://www.w3.org/1999/xlink" x="0px" y="0px"
	 width="88.59px" height="23.61px" viewBox="0 0 88.59 23.61" enable-background="new 0 0 88.59 23.61" xml:space="preserve">
<g>
	<path fill="#FFFFFF" d="M44.292,5.479L43.93,8.438h-1.023l0.963-7.882h2.172c0.418,0,0.781,0.05,1.089,0.148
		c0.309,0.1,0.562,0.24,0.762,0.424c0.2,0.184,0.35,0.403,0.448,0.66c0.1,0.257,0.149,0.543,0.149,0.858
		c0,0.414-0.068,0.794-0.204,1.141s-0.333,0.645-0.591,0.893c-0.259,0.25-0.578,0.445-0.957,0.586
		c-0.38,0.143-0.813,0.213-1.301,0.213H44.292z M44.798,1.364l-0.406,3.3h1.144c0.312,0,0.587-0.047,0.825-0.143
		s0.438-0.229,0.6-0.399c0.161-0.171,0.284-0.374,0.368-0.61c0.085-0.237,0.127-0.494,0.127-0.773c0-0.212-0.031-0.403-0.094-0.571
		c-0.062-0.169-0.156-0.313-0.28-0.433c-0.125-0.119-0.282-0.21-0.474-0.274c-0.19-0.064-0.412-0.097-0.665-0.097H44.798z"/>
	<path fill="#FFFFFF" d="M52.807,8.438h-0.506c-0.129,0-0.216-0.033-0.262-0.1s-0.068-0.146-0.068-0.242L52.07,6.98
		c-0.132,0.232-0.274,0.443-0.426,0.633c-0.152,0.189-0.313,0.35-0.484,0.482s-0.35,0.236-0.536,0.309
		c-0.188,0.074-0.382,0.109-0.583,0.109c-0.22,0-0.42-0.043-0.6-0.129s-0.333-0.213-0.459-0.379
		c-0.127-0.168-0.225-0.373-0.295-0.617c-0.069-0.244-0.104-0.523-0.104-0.838c0-0.33,0.042-0.652,0.124-0.965
		c0.083-0.314,0.2-0.609,0.353-0.889c0.151-0.279,0.334-0.535,0.547-0.767c0.213-0.233,0.45-0.435,0.712-0.605
		c0.263-0.171,0.544-0.303,0.845-0.396c0.301-0.094,0.616-0.141,0.945-0.141c0.238,0,0.471,0.02,0.696,0.059
		s0.448,0.106,0.668,0.202L52.807,8.438z M50.409,7.699c0.18,0,0.355-0.055,0.528-0.164c0.172-0.109,0.335-0.264,0.489-0.457
		c0.154-0.195,0.298-0.428,0.432-0.697c0.134-0.268,0.252-0.562,0.354-0.885l0.237-1.883c-0.081-0.065-0.161-0.099-0.239-0.099
		c-0.079,0-0.157,0-0.234,0c-0.22,0-0.433,0.036-0.638,0.107s-0.397,0.171-0.577,0.299s-0.344,0.28-0.49,0.458
		C50.125,4.557,50,4.75,49.895,4.963S49.708,5.4,49.65,5.641c-0.059,0.238-0.088,0.484-0.088,0.738
		C49.562,7.26,49.844,7.699,50.409,7.699z"/>
	<path fill="#FFFFFF" d="M55.612,10.098c-0.077,0.15-0.191,0.227-0.341,0.227h-0.716l1.205-2.217l-1.441-5.242h0.809
		c0.077,0,0.135,0.019,0.174,0.058c0.038,0.038,0.064,0.087,0.079,0.146l0.896,3.509c0.019,0.076,0.033,0.154,0.044,0.23
		c0.012,0.078,0.021,0.154,0.027,0.23c0.033-0.076,0.065-0.154,0.097-0.232c0.031-0.08,0.066-0.156,0.107-0.234l1.76-3.514
		c0.029-0.059,0.07-0.105,0.124-0.141c0.053-0.034,0.107-0.052,0.162-0.052h0.775L55.612,10.098z"/>
	<path fill="#FFFFFF" d="M61.678,2.866h0.731c0.073,0,0.133,0.019,0.179,0.055c0.046,0.037,0.072,0.086,0.08,0.148l0.512,3.585
		c0.018,0.129,0.028,0.252,0.03,0.371s0.004,0.238,0.008,0.355c0.044-0.117,0.089-0.236,0.135-0.355s0.095-0.242,0.146-0.371
		l1.523-3.607c0.022-0.056,0.059-0.102,0.107-0.138c0.05-0.037,0.105-0.055,0.168-0.055h0.407c0.073,0,0.13,0.018,0.17,0.055
		c0.041,0.036,0.064,0.082,0.072,0.138l0.621,3.607c0.022,0.129,0.039,0.254,0.053,0.375c0.013,0.121,0.024,0.242,0.035,0.363
		c0.037-0.117,0.072-0.238,0.107-0.361s0.078-0.248,0.129-0.377L68.3,3.069c0.022-0.059,0.059-0.107,0.11-0.146
		c0.051-0.039,0.109-0.058,0.176-0.058h0.704l-2.338,5.572H66.21c-0.084,0-0.138-0.062-0.159-0.188l-0.677-3.779
		c-0.011-0.059-0.021-0.117-0.027-0.178c-0.008-0.061-0.015-0.121-0.022-0.179c-0.019,0.062-0.036,0.123-0.055,0.181
		c-0.019,0.059-0.04,0.119-0.066,0.182L63.592,8.25c-0.051,0.125-0.125,0.188-0.22,0.188h-0.715L61.678,2.866z"/>
	<path fill="#FFFFFF" d="M71.194,2.866l-0.671,5.572H69.56l0.671-5.572H71.194z M71.562,1.117c0,0.095-0.02,0.184-0.058,0.267
		c-0.038,0.082-0.09,0.156-0.154,0.22c-0.063,0.064-0.137,0.115-0.217,0.151c-0.081,0.037-0.165,0.055-0.253,0.055
		c-0.085,0-0.167-0.018-0.248-0.055c-0.08-0.036-0.151-0.087-0.212-0.151c-0.061-0.063-0.108-0.138-0.146-0.22
		C70.239,1.3,70.22,1.211,70.22,1.117c0-0.096,0.019-0.186,0.055-0.27c0.037-0.084,0.086-0.159,0.148-0.223
		c0.062-0.064,0.134-0.116,0.215-0.154c0.08-0.038,0.163-0.058,0.247-0.058c0.088,0,0.173,0.019,0.253,0.055
		c0.081,0.037,0.153,0.087,0.218,0.151s0.114,0.14,0.151,0.226C71.543,0.93,71.562,1.021,71.562,1.117z"/>
	<path fill="#FFFFFF" d="M72.59,7.387c0-0.021,0.001-0.051,0.003-0.086s0.006-0.084,0.012-0.15c0.005-0.066,0.014-0.152,0.024-0.26
		c0.011-0.105,0.027-0.244,0.05-0.418l0.346-2.788h-0.621c-0.048,0-0.087-0.014-0.118-0.041s-0.047-0.071-0.047-0.13
		c0-0.011,0.002-0.032,0.006-0.065c0.003-0.033,0.008-0.07,0.014-0.113c0.005-0.042,0.011-0.085,0.017-0.129
		c0.005-0.044,0.01-0.086,0.014-0.127l0.857-0.115l0.413-1.722c0.015-0.055,0.042-0.1,0.082-0.135
		c0.04-0.034,0.09-0.052,0.148-0.052h0.518l-0.242,1.919h1.463l-0.083,0.71h-1.468l-0.336,2.739
		c-0.019,0.15-0.032,0.271-0.041,0.363s-0.017,0.164-0.022,0.221c-0.005,0.055-0.009,0.092-0.011,0.115
		c-0.002,0.021-0.003,0.037-0.003,0.049c0,0.188,0.043,0.326,0.13,0.416c0.086,0.09,0.204,0.135,0.354,0.135
		c0.096,0,0.18-0.014,0.253-0.041c0.073-0.029,0.137-0.059,0.189-0.092c0.054-0.033,0.099-0.062,0.135-0.09
		c0.037-0.027,0.07-0.041,0.1-0.041s0.052,0.006,0.068,0.021c0.017,0.014,0.034,0.037,0.053,0.07l0.203,0.469
		c-0.176,0.156-0.379,0.281-0.607,0.371c-0.229,0.09-0.46,0.135-0.69,0.135c-0.355,0-0.637-0.098-0.842-0.291
		C72.705,8.039,72.598,7.758,72.59,7.387z"/>
	<path fill="#FFFFFF" d="M75.918,8.438l0.979-8.102h0.979l-0.457,3.762c0.29-0.433,0.611-0.76,0.966-0.981
		c0.354-0.222,0.716-0.333,1.086-0.333c0.422,0,0.746,0.14,0.974,0.418c0.228,0.279,0.341,0.685,0.341,1.215
		c0,0.074-0.002,0.15-0.005,0.229c-0.004,0.08-0.012,0.16-0.022,0.244L80.34,8.438h-0.979l0.418-3.549
		c0.007-0.072,0.014-0.143,0.019-0.211c0.006-0.068,0.009-0.133,0.009-0.195c0-0.3-0.057-0.524-0.168-0.671
		c-0.112-0.146-0.289-0.22-0.531-0.22c-0.164,0-0.334,0.045-0.508,0.135c-0.175,0.09-0.344,0.218-0.509,0.383
		c-0.165,0.165-0.319,0.364-0.463,0.596c-0.143,0.232-0.268,0.492-0.373,0.779l-0.358,2.953H75.918z"/>
	<path fill="#FFFFFF" d="M87.925,8.438h-0.506c-0.129,0-0.216-0.033-0.262-0.1s-0.068-0.146-0.068-0.242l0.099-1.115
		c-0.132,0.232-0.274,0.443-0.426,0.633c-0.152,0.189-0.313,0.35-0.484,0.482s-0.35,0.236-0.536,0.309
		c-0.188,0.074-0.382,0.109-0.583,0.109c-0.22,0-0.42-0.043-0.6-0.129S84.226,8.172,84.1,8.006
		c-0.127-0.168-0.225-0.373-0.295-0.617c-0.069-0.244-0.104-0.523-0.104-0.838c0-0.33,0.042-0.652,0.124-0.965
		c0.083-0.314,0.2-0.609,0.353-0.889c0.151-0.279,0.334-0.535,0.547-0.767c0.213-0.233,0.45-0.435,0.712-0.605
		c0.263-0.171,0.544-0.303,0.845-0.396c0.301-0.094,0.616-0.141,0.945-0.141c0.238,0,0.471,0.02,0.696,0.059
		s0.448,0.106,0.668,0.202L87.925,8.438z M85.527,7.699c0.18,0,0.355-0.055,0.528-0.164c0.172-0.109,0.335-0.264,0.489-0.457
		c0.154-0.195,0.298-0.428,0.432-0.697c0.134-0.268,0.252-0.562,0.354-0.885l0.237-1.883c-0.081-0.065-0.161-0.099-0.239-0.099
		c-0.079,0-0.157,0-0.234,0c-0.22,0-0.433,0.036-0.638,0.107s-0.397,0.171-0.577,0.299s-0.344,0.28-0.49,0.458
		c-0.146,0.178-0.271,0.371-0.376,0.584S84.827,5.4,84.768,5.641c-0.059,0.238-0.088,0.484-0.088,0.738
		C84.68,7.26,84.962,7.699,85.527,7.699z"/>
	<path fill="#FFFFFF" d="M45.204,20.244c0-0.037,0-0.082,0-0.135c0-0.055,0.004-0.131,0.012-0.229c0.008-0.1,0.021-0.229,0.04-0.393
		c0.019-0.162,0.044-0.377,0.076-0.645l0.424-3.391h-0.664c-0.102,0-0.187-0.033-0.256-0.1c-0.069-0.068-0.104-0.168-0.104-0.301
		c0-0.006,0.005-0.053,0.016-0.141s0.021-0.182,0.032-0.279c0.011-0.1,0.021-0.191,0.032-0.275c0.01-0.086,0.016-0.135,0.016-0.145
		l0.023-0.217l1.257-0.256l0.695-2.023c0.08-0.256,0.262-0.385,0.544-0.385h1.345l-0.305,2.424h1.856l-0.208,1.697h-1.856
		l-0.399,3.256c-0.027,0.219-0.047,0.391-0.061,0.516c-0.013,0.125-0.023,0.221-0.031,0.287c-0.009,0.068-0.014,0.113-0.017,0.137
		s-0.004,0.039-0.004,0.045c0,0.154,0.036,0.283,0.108,0.387c0.071,0.105,0.185,0.156,0.34,0.156c0.085,0,0.156-0.01,0.212-0.027
		c0.056-0.02,0.105-0.041,0.147-0.064c0.043-0.023,0.083-0.045,0.12-0.064c0.037-0.018,0.08-0.027,0.128-0.027
		c0.075,0,0.131,0.018,0.168,0.053c0.038,0.033,0.072,0.088,0.104,0.164l0.544,1.176c-0.331,0.24-0.686,0.42-1.064,0.539
		c-0.378,0.121-0.76,0.18-1.144,0.18c-0.32,0-0.608-0.043-0.864-0.131s-0.476-0.217-0.66-0.385
		c-0.184-0.168-0.327-0.369-0.432-0.604C45.272,20.811,45.214,20.543,45.204,20.244z"/>
	<path fill="#FFFFFF" d="M50.547,13.74h1.904c0.16,0,0.296,0.041,0.408,0.121c0.111,0.08,0.173,0.184,0.184,0.311l0.24,3.721
		c0,0.021,0.001,0.041,0.004,0.061c0.002,0.018,0.004,0.039,0.004,0.059c0.016,0.258,0.029,0.506,0.04,0.744
		c0.011,0.24,0.019,0.48,0.023,0.721c0.097-0.256,0.199-0.514,0.309-0.775s0.217-0.531,0.324-0.809l1.392-3.729
		c0.043-0.121,0.127-0.225,0.252-0.307c0.125-0.084,0.26-0.125,0.404-0.125h1.071c0.171,0,0.309,0.041,0.412,0.125
		c0.104,0.082,0.164,0.186,0.181,0.307l0.479,3.729c0.037,0.271,0.073,0.539,0.108,0.801c0.034,0.26,0.065,0.52,0.092,0.775
		c0.074-0.256,0.154-0.512,0.24-0.768c0.085-0.256,0.173-0.525,0.264-0.809l1.168-3.721c0.043-0.121,0.124-0.225,0.244-0.307
		c0.12-0.084,0.252-0.125,0.396-0.125h1.824l-3.376,8.297h-1.936c-0.097,0-0.175-0.033-0.236-0.096
		c-0.062-0.064-0.105-0.172-0.132-0.32l-0.608-4.137c-0.016-0.117-0.03-0.232-0.044-0.348c-0.013-0.115-0.025-0.23-0.036-0.348
		c-0.042,0.123-0.088,0.242-0.136,0.359s-0.093,0.234-0.136,0.352l-1.584,4.121c-0.112,0.277-0.288,0.416-0.528,0.416h-1.855
		L50.547,13.74z"/>
	<path fill="#FFFFFF" d="M69.652,15.781c0,0.379-0.075,0.725-0.225,1.039s-0.409,0.594-0.78,0.836
		c-0.37,0.242-0.869,0.449-1.495,0.621c-0.627,0.17-1.415,0.303-2.364,0.398c0.011,0.566,0.135,0.98,0.372,1.24
		c0.237,0.262,0.588,0.393,1.052,0.393c0.219,0,0.408-0.02,0.568-0.057s0.3-0.084,0.42-0.143s0.228-0.121,0.324-0.186
		c0.096-0.062,0.188-0.125,0.275-0.184s0.18-0.105,0.276-0.145c0.096-0.037,0.205-0.055,0.328-0.055c0.08,0,0.157,0.02,0.231,0.061
		c0.075,0.039,0.142,0.092,0.2,0.154l0.64,0.744c-0.293,0.289-0.58,0.537-0.859,0.748c-0.28,0.211-0.568,0.385-0.864,0.521
		c-0.296,0.135-0.61,0.234-0.944,0.299c-0.333,0.064-0.697,0.096-1.092,0.096c-0.49,0-0.941-0.084-1.352-0.252
		c-0.411-0.168-0.765-0.404-1.061-0.711s-0.525-0.676-0.688-1.109c-0.163-0.432-0.244-0.912-0.244-1.439
		c0-0.441,0.049-0.875,0.147-1.295c0.099-0.422,0.24-0.818,0.425-1.189c0.184-0.369,0.409-0.711,0.676-1.023s0.566-0.58,0.899-0.805
		c0.334-0.223,0.699-0.398,1.097-0.523s0.819-0.188,1.268-0.188c0.442,0,0.836,0.064,1.18,0.191c0.345,0.129,0.634,0.295,0.868,0.5
		c0.235,0.205,0.413,0.436,0.536,0.691C69.59,15.27,69.652,15.525,69.652,15.781z M66.74,15.301c-0.411,0-0.771,0.164-1.08,0.492
		c-0.31,0.328-0.542,0.777-0.696,1.348c0.518-0.08,0.937-0.164,1.256-0.252c0.32-0.088,0.568-0.184,0.744-0.287
		c0.176-0.105,0.295-0.217,0.356-0.338c0.061-0.119,0.092-0.248,0.092-0.387s-0.054-0.27-0.16-0.393S66.974,15.301,66.74,15.301z"/>
	<path fill="#FFFFFF" d="M77.396,15.781c0,0.379-0.075,0.725-0.225,1.039s-0.409,0.594-0.78,0.836
		c-0.37,0.242-0.869,0.449-1.495,0.621c-0.627,0.17-1.415,0.303-2.364,0.398c0.011,0.566,0.135,0.98,0.372,1.24
		c0.237,0.262,0.588,0.393,1.052,0.393c0.219,0,0.408-0.02,0.568-0.057s0.3-0.084,0.42-0.143s0.228-0.121,0.324-0.186
		c0.096-0.062,0.188-0.125,0.275-0.184s0.18-0.105,0.276-0.145c0.096-0.037,0.205-0.055,0.328-0.055c0.08,0,0.157,0.02,0.231,0.061
		c0.075,0.039,0.142,0.092,0.2,0.154l0.64,0.744c-0.293,0.289-0.58,0.537-0.859,0.748c-0.28,0.211-0.568,0.385-0.864,0.521
		c-0.296,0.135-0.61,0.234-0.944,0.299c-0.333,0.064-0.697,0.096-1.092,0.096c-0.49,0-0.941-0.084-1.352-0.252
		c-0.411-0.168-0.765-0.404-1.061-0.711s-0.525-0.676-0.688-1.109c-0.163-0.432-0.244-0.912-0.244-1.439
		c0-0.441,0.049-0.875,0.147-1.295c0.099-0.422,0.24-0.818,0.425-1.189c0.184-0.369,0.409-0.711,0.676-1.023s0.566-0.58,0.899-0.805
		c0.334-0.223,0.699-0.398,1.097-0.523s0.819-0.188,1.268-0.188c0.442,0,0.836,0.064,1.18,0.191c0.345,0.129,0.634,0.295,0.868,0.5
		c0.235,0.205,0.413,0.436,0.536,0.691C77.334,15.27,77.396,15.525,77.396,15.781z M74.484,15.301c-0.411,0-0.771,0.164-1.08,0.492
		c-0.31,0.328-0.542,0.777-0.696,1.348c0.518-0.08,0.937-0.164,1.256-0.252c0.32-0.088,0.568-0.184,0.744-0.287
		c0.176-0.105,0.295-0.217,0.356-0.338c0.061-0.119,0.092-0.248,0.092-0.387s-0.054-0.27-0.16-0.393S74.718,15.301,74.484,15.301z"
		/>
	<path fill="#FFFFFF" d="M78.612,20.244c0-0.037,0-0.082,0-0.135c0-0.055,0.004-0.131,0.012-0.229c0.008-0.1,0.021-0.229,0.04-0.393
		c0.019-0.162,0.044-0.377,0.076-0.645l0.424-3.391H78.5c-0.102,0-0.187-0.033-0.256-0.1c-0.069-0.068-0.104-0.168-0.104-0.301
		c0-0.006,0.005-0.053,0.016-0.141s0.021-0.182,0.032-0.279c0.011-0.1,0.021-0.191,0.032-0.275c0.01-0.086,0.016-0.135,0.016-0.145
		l0.023-0.217l1.257-0.256l0.695-2.023c0.08-0.256,0.262-0.385,0.544-0.385H82.1l-0.305,2.424h1.856l-0.208,1.697h-1.856
		l-0.399,3.256c-0.027,0.219-0.047,0.391-0.061,0.516c-0.013,0.125-0.023,0.221-0.031,0.287c-0.009,0.068-0.014,0.113-0.017,0.137
		s-0.004,0.039-0.004,0.045c0,0.154,0.036,0.283,0.108,0.387c0.071,0.105,0.185,0.156,0.34,0.156c0.085,0,0.156-0.01,0.212-0.027
		c0.056-0.02,0.105-0.041,0.147-0.064c0.043-0.023,0.083-0.045,0.12-0.064c0.037-0.018,0.08-0.027,0.128-0.027
		c0.075,0,0.131,0.018,0.168,0.053c0.038,0.033,0.072,0.088,0.104,0.164l0.544,1.176c-0.331,0.24-0.686,0.42-1.064,0.539
		c-0.378,0.121-0.76,0.18-1.144,0.18c-0.32,0-0.608-0.043-0.864-0.131s-0.476-0.217-0.66-0.385
		c-0.184-0.168-0.327-0.369-0.432-0.604C78.68,20.811,78.623,20.543,78.612,20.244z"/>
	<path fill="#FFFFFF" d="M83.564,20.781c0-0.193,0.035-0.371,0.107-0.537c0.072-0.164,0.171-0.309,0.296-0.432
		c0.126-0.123,0.273-0.221,0.444-0.291c0.171-0.072,0.357-0.109,0.56-0.109c0.197,0,0.382,0.037,0.553,0.109
		c0.17,0.07,0.319,0.168,0.447,0.291s0.229,0.268,0.301,0.432c0.071,0.166,0.107,0.344,0.107,0.537c0,0.191-0.036,0.371-0.107,0.539
		c-0.072,0.168-0.173,0.314-0.301,0.436c-0.128,0.123-0.277,0.219-0.447,0.289c-0.171,0.068-0.355,0.104-0.553,0.104
		c-0.202,0-0.389-0.035-0.56-0.104c-0.171-0.07-0.318-0.166-0.444-0.289c-0.125-0.121-0.224-0.268-0.296-0.436
		S83.564,20.973,83.564,20.781z"/>
</g>
<g>
	<path id="Twitter__x28_alt_x29__1_" fill="#FFFFFF" d="M30.391,10.497c1.925-0.158,3.231-1.034,3.733-2.221
		c-0.694,0.426-2.851,0.891-4.04,0.447c-0.06-0.279-0.124-0.545-0.188-0.784c-0.907-3.331-4.013-6.015-7.267-5.69
		c0.263-0.105,0.53-0.206,0.796-0.294c0.357-0.129,2.461-0.471,2.129-1.212c-0.279-0.652-2.846,0.492-3.33,0.643
		c0.639-0.24,1.693-0.652,1.807-1.386c-0.978,0.134-1.937,0.596-2.679,1.269c0.268-0.289,0.471-0.64,0.514-1.018
		c-2.607,1.666-4.132,5.024-5.364,8.281c-0.968-0.938-1.825-1.676-2.596-2.086C11.748,5.288,9.165,4.08,5.112,2.575
		C4.988,3.916,5.776,5.699,8.045,6.886c-0.492-0.066-1.391,0.08-2.109,0.252c0.293,1.537,1.248,2.802,3.839,3.414
		c-1.185,0.078-1.795,0.348-2.35,0.928c0.539,1.068,1.854,2.326,4.219,2.067c-2.629,1.133-1.071,3.232,1.069,2.92
		C9.062,20.237,3.306,19.961,0,16.806c8.63,11.76,27.389,6.956,30.184-4.371c2.095,0.018,3.327-0.726,4.09-1.545
		C33.067,11.094,31.318,10.883,30.391,10.497z"/>
	<g>
		<path fill="#242842" d="M21.918,12.949c-0.195-0.033-0.389-0.077-0.577-0.139c-0.187-0.06-0.362-0.128-0.532-0.21
			c-0.166-0.082-0.323-0.175-0.468-0.276c-0.146-0.101-0.271-0.21-0.381-0.331l0.576-0.697c0.051-0.061,0.111-0.11,0.182-0.147
			c0.073-0.039,0.147-0.06,0.229-0.06c0.083,0,0.167,0.024,0.246,0.07c0.081,0.044,0.17,0.098,0.265,0.164
			c0.097,0.064,0.205,0.132,0.324,0.197c0.118,0.066,0.257,0.121,0.416,0.163l0.444-2.058c-0.224-0.063-0.444-0.139-0.663-0.227
			c-0.218-0.088-0.416-0.202-0.593-0.344c-0.174-0.14-0.316-0.316-0.425-0.527c-0.106-0.215-0.164-0.479-0.164-0.795
			s0.067-0.621,0.197-0.92c0.127-0.295,0.314-0.56,0.559-0.794c0.242-0.233,0.537-0.426,0.884-0.571
			c0.347-0.148,0.737-0.223,1.171-0.223l0.132-0.602c0.018-0.1,0.073-0.188,0.157-0.264c0.088-0.074,0.189-0.113,0.304-0.113h0.577
			L24.55,5.274c0.374,0.069,0.684,0.178,0.934,0.333c0.25,0.152,0.46,0.317,0.627,0.502l-0.451,0.562
			c-0.069,0.086-0.137,0.148-0.199,0.186c-0.063,0.035-0.139,0.054-0.222,0.054c-0.051,0-0.112-0.011-0.178-0.037
			c-0.066-0.027-0.139-0.062-0.222-0.102c-0.078-0.038-0.166-0.079-0.262-0.124c-0.093-0.041-0.194-0.078-0.303-0.109l-0.42,1.933
			c0.223,0.072,0.447,0.148,0.67,0.238c0.225,0.087,0.426,0.198,0.602,0.335c0.178,0.136,0.321,0.301,0.432,0.498
			c0.108,0.197,0.164,0.44,0.164,0.727c0,0.354-0.065,0.689-0.196,1.006c-0.132,0.32-0.32,0.603-0.567,0.848
			c-0.245,0.245-0.546,0.447-0.897,0.604c-0.353,0.158-0.749,0.235-1.193,0.235l-0.148,0.702c-0.016,0.092-0.069,0.179-0.156,0.257
			c-0.087,0.074-0.188,0.113-0.305,0.113h-0.576L21.918,12.949z M22.309,7.401c0,0.188,0.062,0.341,0.183,0.457
			c0.12,0.117,0.28,0.218,0.47,0.303l0.363-1.658c-0.187,0.022-0.343,0.064-0.473,0.12s-0.234,0.121-0.315,0.202
			c-0.081,0.078-0.137,0.167-0.173,0.265C22.328,7.188,22.309,7.29,22.309,7.401z M24.19,10.628c0-0.186-0.062-0.334-0.183-0.444
			c-0.119-0.108-0.274-0.203-0.464-0.279l-0.399,1.815c0.35-0.053,0.611-0.17,0.785-0.354C24.103,11.182,24.19,10.937,24.19,10.628z
			"/>
	</g>
</g>
</svg>
