<?xml version="1.0" encoding="utf-8"?>
<!-- Generator: Adobe Illustrator 15.0.0, SVG Export Plug-In  -->
<!DOCTYPE svg PUBLIC "-//W3C//DTD SVG 1.1//EN" "http://www.w3.org/Graphics/SVG/1.1/DTD/svg11.dtd" [
	<!ENTITY ns_flows "http://ns.adobe.com/Flows/1.0/">
]>
<svg version="1.1"
	 xmlns="http://www.w3.org/2000/svg" xmlns:xlink="http://www.w3.org/1999/xlink" xmlns:a="http://ns.adobe.com/AdobeSVGViewerExtensions/3.0/"
	 x="0px" y="0px" width="28px" height="20px" viewBox="-0.198 -0.51 28 20"
	 overflow="visible" enable-background="new -0.198 -0.51 28 20" xml:space="preserve">
<defs>
</defs>
<path id="Twitter__x28_alt_x29__1_" fill="#FFFFFF" d="M24.486,8.458c1.552-0.128,2.603-0.833,3.009-1.79
	c-0.561,0.344-2.297,0.719-3.257,0.361c-0.047-0.226-0.099-0.439-0.15-0.633c-0.731-2.684-3.232-4.846-5.854-4.584
	c0.212-0.086,0.427-0.166,0.642-0.237c0.288-0.103,1.981-0.379,1.716-0.978c-0.227-0.525-2.293,0.398-2.684,0.52
	C18.421,0.924,19.272,0.59,19.362,0c-0.788,0.107-1.561,0.479-2.158,1.021c0.216-0.231,0.38-0.515,0.414-0.818
	c-2.102,1.342-3.328,4.047-4.321,6.673c-0.781-0.756-1.473-1.353-2.093-1.682C9.465,4.261,7.386,3.288,4.119,2.075
	c-0.1,1.08,0.535,2.518,2.363,3.473c-0.396-0.054-1.12,0.064-1.7,0.204c0.235,1.238,1.007,2.257,3.093,2.75
	c-0.953,0.063-1.446,0.28-1.894,0.747c0.436,0.86,1.495,1.874,3.4,1.666c-2.119,0.913-0.863,2.604,0.86,2.353
	C7.301,16.306,2.663,16.083,0,13.541c6.954,9.475,22.068,5.604,24.319-3.523c1.688,0.016,2.68-0.584,3.296-1.244
	C26.644,8.938,25.234,8.769,24.486,8.458z"/>
</svg>
